<?xml version="1.0" encoding="utf-8" standalone="no"?>
<!DOCTYPE svg PUBLIC "-//W3C//DTD SVG 1.1//EN"
  "http://www.w3.org/Graphics/SVG/1.1/DTD/svg11.dtd">
<svg xmlns:xlink="http://www.w3.org/1999/xlink" width="869.76pt" height="501.84pt" viewBox="0 0 869.76 501.84" xmlns="http://www.w3.org/2000/svg" version="1.1">
 <metadata>
  <rdf:RDF xmlns:dc="http://purl.org/dc/elements/1.1/" xmlns:cc="http://creativecommons.org/ns#" xmlns:rdf="http://www.w3.org/1999/02/22-rdf-syntax-ns#">
   <cc:Work>
    <dc:type rdf:resource="http://purl.org/dc/dcmitype/StillImage"/>
    <dc:date>2024-04-25T14:51:53.301197</dc:date>
    <dc:format>image/svg+xml</dc:format>
    <dc:creator>
     <cc:Agent>
      <dc:title>Matplotlib v3.5.3, https://matplotlib.org/</dc:title>
     </cc:Agent>
    </dc:creator>
   </cc:Work>
  </rdf:RDF>
 </metadata>
 <defs>
  <style type="text/css">*{stroke-linejoin: round; stroke-linecap: butt}</style>
 </defs>
 <g id="figure_1">
  <g id="patch_1">
   <path d="M 0 501.84 
L 869.76 501.84 
L 869.76 0 
L 0 0 
z
" style="fill: #ffffff"/>
  </g>
  <g id="axes_1">
   <g id="patch_2">
    <path d="M 130.464 156.825 
L 782.784 156.825 
L 782.784 60.2208 
L 130.464 60.2208 
z
" style="fill: #ffffff"/>
   </g>
   <g id="matplotlib.axis_1">
    <g id="xtick_1">
     <g id="line2d_1">
      <path d="M 130.464 156.825 
L 130.464 60.2208 
" clip-path="url(#paf026e5de0)" style="fill: none; stroke-dasharray: 2.96,1.28; stroke-dashoffset: 0; stroke: #b0b0b0; stroke-width: 0.8"/>
     </g>
     <g id="line2d_2">
      <defs>
       <path id="m6abf54cd54" d="M 0 0 
L 0 3.5 
" style="stroke: #000000; stroke-width: 0.8"/>
      </defs>
      <g>
       <use xlink:href="#m6abf54cd54" x="130.464" y="156.825" style="stroke: #000000; stroke-width: 0.8"/>
      </g>
     </g>
     <g id="text_1">
      <!-- 0 -->
      <g transform="translate(127.28275 171.423437)scale(0.1 -0.1)">
       <defs>
        <path id="DejaVuSans-30" d="M 2034 4250 
Q 1547 4250 1301 3770 
Q 1056 3291 1056 2328 
Q 1056 1369 1301 889 
Q 1547 409 2034 409 
Q 2525 409 2770 889 
Q 3016 1369 3016 2328 
Q 3016 3291 2770 3770 
Q 2525 4250 2034 4250 
z
M 2034 4750 
Q 2819 4750 3233 4129 
Q 3647 3509 3647 2328 
Q 3647 1150 3233 529 
Q 2819 -91 2034 -91 
Q 1250 -91 836 529 
Q 422 1150 422 2328 
Q 422 3509 836 4129 
Q 1250 4750 2034 4750 
z
" transform="scale(0.015625)"/>
       </defs>
       <use xlink:href="#DejaVuSans-30"/>
      </g>
     </g>
    </g>
    <g id="xtick_2">
     <g id="line2d_3">
      <path d="M 249.067636 156.825 
L 249.067636 60.2208 
" clip-path="url(#paf026e5de0)" style="fill: none; stroke-dasharray: 2.96,1.28; stroke-dashoffset: 0; stroke: #b0b0b0; stroke-width: 0.8"/>
     </g>
     <g id="line2d_4">
      <g>
       <use xlink:href="#m6abf54cd54" x="249.067636" y="156.825" style="stroke: #000000; stroke-width: 0.8"/>
      </g>
     </g>
     <g id="text_2">
      <!-- 10 -->
      <g transform="translate(242.705136 171.423437)scale(0.1 -0.1)">
       <defs>
        <path id="DejaVuSans-31" d="M 794 531 
L 1825 531 
L 1825 4091 
L 703 3866 
L 703 4441 
L 1819 4666 
L 2450 4666 
L 2450 531 
L 3481 531 
L 3481 0 
L 794 0 
L 794 531 
z
" transform="scale(0.015625)"/>
       </defs>
       <use xlink:href="#DejaVuSans-31"/>
       <use xlink:href="#DejaVuSans-30" x="63.623047"/>
      </g>
     </g>
    </g>
    <g id="xtick_3">
     <g id="line2d_5">
      <path d="M 367.671273 156.825 
L 367.671273 60.2208 
" clip-path="url(#paf026e5de0)" style="fill: none; stroke-dasharray: 2.96,1.28; stroke-dashoffset: 0; stroke: #b0b0b0; stroke-width: 0.8"/>
     </g>
     <g id="line2d_6">
      <g>
       <use xlink:href="#m6abf54cd54" x="367.671273" y="156.825" style="stroke: #000000; stroke-width: 0.8"/>
      </g>
     </g>
     <g id="text_3">
      <!-- 20 -->
      <g transform="translate(361.308773 171.423437)scale(0.1 -0.1)">
       <defs>
        <path id="DejaVuSans-32" d="M 1228 531 
L 3431 531 
L 3431 0 
L 469 0 
L 469 531 
Q 828 903 1448 1529 
Q 2069 2156 2228 2338 
Q 2531 2678 2651 2914 
Q 2772 3150 2772 3378 
Q 2772 3750 2511 3984 
Q 2250 4219 1831 4219 
Q 1534 4219 1204 4116 
Q 875 4013 500 3803 
L 500 4441 
Q 881 4594 1212 4672 
Q 1544 4750 1819 4750 
Q 2544 4750 2975 4387 
Q 3406 4025 3406 3419 
Q 3406 3131 3298 2873 
Q 3191 2616 2906 2266 
Q 2828 2175 2409 1742 
Q 1991 1309 1228 531 
z
" transform="scale(0.015625)"/>
       </defs>
       <use xlink:href="#DejaVuSans-32"/>
       <use xlink:href="#DejaVuSans-30" x="63.623047"/>
      </g>
     </g>
    </g>
    <g id="xtick_4">
     <g id="line2d_7">
      <path d="M 486.274909 156.825 
L 486.274909 60.2208 
" clip-path="url(#paf026e5de0)" style="fill: none; stroke-dasharray: 2.96,1.28; stroke-dashoffset: 0; stroke: #b0b0b0; stroke-width: 0.8"/>
     </g>
     <g id="line2d_8">
      <g>
       <use xlink:href="#m6abf54cd54" x="486.274909" y="156.825" style="stroke: #000000; stroke-width: 0.8"/>
      </g>
     </g>
     <g id="text_4">
      <!-- 30 -->
      <g transform="translate(479.912409 171.423437)scale(0.1 -0.1)">
       <defs>
        <path id="DejaVuSans-33" d="M 2597 2516 
Q 3050 2419 3304 2112 
Q 3559 1806 3559 1356 
Q 3559 666 3084 287 
Q 2609 -91 1734 -91 
Q 1441 -91 1130 -33 
Q 819 25 488 141 
L 488 750 
Q 750 597 1062 519 
Q 1375 441 1716 441 
Q 2309 441 2620 675 
Q 2931 909 2931 1356 
Q 2931 1769 2642 2001 
Q 2353 2234 1838 2234 
L 1294 2234 
L 1294 2753 
L 1863 2753 
Q 2328 2753 2575 2939 
Q 2822 3125 2822 3475 
Q 2822 3834 2567 4026 
Q 2313 4219 1838 4219 
Q 1578 4219 1281 4162 
Q 984 4106 628 3988 
L 628 4550 
Q 988 4650 1302 4700 
Q 1616 4750 1894 4750 
Q 2613 4750 3031 4423 
Q 3450 4097 3450 3541 
Q 3450 3153 3228 2886 
Q 3006 2619 2597 2516 
z
" transform="scale(0.015625)"/>
       </defs>
       <use xlink:href="#DejaVuSans-33"/>
       <use xlink:href="#DejaVuSans-30" x="63.623047"/>
      </g>
     </g>
    </g>
    <g id="xtick_5">
     <g id="line2d_9">
      <path d="M 604.878545 156.825 
L 604.878545 60.2208 
" clip-path="url(#paf026e5de0)" style="fill: none; stroke-dasharray: 2.96,1.28; stroke-dashoffset: 0; stroke: #b0b0b0; stroke-width: 0.8"/>
     </g>
     <g id="line2d_10">
      <g>
       <use xlink:href="#m6abf54cd54" x="604.878545" y="156.825" style="stroke: #000000; stroke-width: 0.8"/>
      </g>
     </g>
     <g id="text_5">
      <!-- 40 -->
      <g transform="translate(598.516045 171.423437)scale(0.1 -0.1)">
       <defs>
        <path id="DejaVuSans-34" d="M 2419 4116 
L 825 1625 
L 2419 1625 
L 2419 4116 
z
M 2253 4666 
L 3047 4666 
L 3047 1625 
L 3713 1625 
L 3713 1100 
L 3047 1100 
L 3047 0 
L 2419 0 
L 2419 1100 
L 313 1100 
L 313 1709 
L 2253 4666 
z
" transform="scale(0.015625)"/>
       </defs>
       <use xlink:href="#DejaVuSans-34"/>
       <use xlink:href="#DejaVuSans-30" x="63.623047"/>
      </g>
     </g>
    </g>
    <g id="xtick_6">
     <g id="line2d_11">
      <path d="M 723.482182 156.825 
L 723.482182 60.2208 
" clip-path="url(#paf026e5de0)" style="fill: none; stroke-dasharray: 2.96,1.28; stroke-dashoffset: 0; stroke: #b0b0b0; stroke-width: 0.8"/>
     </g>
     <g id="line2d_12">
      <g>
       <use xlink:href="#m6abf54cd54" x="723.482182" y="156.825" style="stroke: #000000; stroke-width: 0.8"/>
      </g>
     </g>
     <g id="text_6">
      <!-- 50 -->
      <g transform="translate(717.119682 171.423437)scale(0.1 -0.1)">
       <defs>
        <path id="DejaVuSans-35" d="M 691 4666 
L 3169 4666 
L 3169 4134 
L 1269 4134 
L 1269 2991 
Q 1406 3038 1543 3061 
Q 1681 3084 1819 3084 
Q 2600 3084 3056 2656 
Q 3513 2228 3513 1497 
Q 3513 744 3044 326 
Q 2575 -91 1722 -91 
Q 1428 -91 1123 -41 
Q 819 9 494 109 
L 494 744 
Q 775 591 1075 516 
Q 1375 441 1709 441 
Q 2250 441 2565 725 
Q 2881 1009 2881 1497 
Q 2881 1984 2565 2268 
Q 2250 2553 1709 2553 
Q 1456 2553 1204 2497 
Q 953 2441 691 2322 
L 691 4666 
z
" transform="scale(0.015625)"/>
       </defs>
       <use xlink:href="#DejaVuSans-35"/>
       <use xlink:href="#DejaVuSans-30" x="63.623047"/>
      </g>
     </g>
    </g>
    <g id="text_7">
     <!-- 训练轮数 -->
     <g transform="translate(742.784 185.510938)scale(0.1 -0.1)">
      <defs>
       <path id="SimHei-8bad" d="M 1650 3300 
Q 1625 2725 1625 2225 
L 1625 675 
Q 1950 1125 2050 1275 
Q 2175 1125 2350 900 
Q 2025 500 1800 212 
Q 1575 -75 1325 -425 
Q 1150 -200 950 -50 
Q 1150 225 1150 625 
L 1150 2875 
L 975 2875 
Q 600 2875 300 2850 
L 300 3325 
Q 600 3300 975 3300 
L 1650 3300 
z
M 3425 4600 
Q 3375 4350 3387 3362 
Q 3400 2375 3337 1887 
Q 3275 1400 3087 837 
Q 2900 275 2450 -375 
Q 2225 -200 1975 -125 
Q 2550 500 2762 1362 
Q 2975 2225 2950 3337 
Q 2925 4450 2900 4675 
Q 3150 4625 3425 4600 
z
M 5875 4700 
Q 5850 4500 5850 3975 
L 5850 625 
Q 5850 125 5875 -400 
L 5400 -400 
Q 5425 125 5425 600 
L 5425 3975 
Q 5425 4500 5400 4700 
L 5875 4700 
z
M 4600 175 
L 4125 175 
Q 4150 725 4150 1150 
L 4150 3600 
Q 4150 4050 4125 4350 
L 4600 4350 
L 4600 175 
z
M 1000 5150 
Q 1650 4600 2100 4100 
Q 1875 3925 1750 3750 
Q 1050 4550 700 4800 
Q 850 4950 1000 5150 
z
" transform="scale(0.015625)"/>
       <path id="SimHei-7ec3" d="M 3300 3825 
Q 2950 3825 2400 3800 
L 2400 4250 
Q 2950 4225 3325 4225 
L 3625 4225 
Q 3875 4950 3900 5175 
Q 4200 5025 4450 4925 
Q 4350 4825 4262 4612 
Q 4175 4400 4100 4225 
L 5025 4225 
Q 5425 4225 5900 4250 
L 5900 3800 
Q 5550 3825 5025 3825 
L 3975 3825 
Q 3850 3525 3700 3150 
L 4675 3150 
Q 4650 2875 4650 2475 
L 4650 1975 
L 4975 1975 
Q 5350 1975 5800 2000 
L 5800 1550 
Q 5350 1575 4975 1575 
L 4650 1575 
L 4650 125 
Q 4650 -300 4462 -425 
Q 4275 -550 3650 -625 
Q 3625 -375 3450 -100 
Q 4075 -125 4137 -25 
Q 4200 75 4200 325 
L 4200 1575 
L 3425 1575 
Q 3250 1575 3100 1562 
Q 2950 1550 2750 1475 
Q 2650 1725 2550 1950 
Q 2800 2025 3125 2775 
Q 2950 2775 2450 2750 
L 2450 3175 
Q 3025 3150 3250 3150 
Q 3400 3525 3500 3825 
L 3300 3825 
z
M 1650 2950 
Q 1875 3300 2100 3900 
Q 2325 3725 2575 3600 
Q 2325 3275 2025 2750 
Q 1725 2225 1075 1350 
Q 1300 1400 2400 1575 
Q 2350 1300 2375 1150 
Q 1825 1100 650 825 
Q 525 1075 400 1275 
Q 625 1400 887 1737 
Q 1150 2075 1450 2575 
Q 1300 2600 1012 2562 
Q 725 2525 450 2450 
Q 350 2675 250 2925 
Q 500 3075 812 3725 
Q 1125 4375 1325 5000 
Q 1600 4825 1850 4750 
Q 1600 4375 1387 3962 
Q 1175 3550 800 2925 
Q 1375 2925 1650 2950 
z
M 2425 700 
Q 2400 425 2425 250 
Q 2000 150 1462 -25 
Q 925 -200 475 -425 
Q 400 -150 300 125 
Q 950 275 1187 337 
Q 1425 400 2425 700 
z
M 3725 875 
Q 3650 800 3287 400 
Q 2925 0 2475 -475 
Q 2300 -250 2150 -125 
Q 2425 100 2750 462 
Q 3075 825 3325 1225 
Q 3475 1050 3725 875 
z
M 5275 1225 
Q 5925 375 6200 -100 
Q 5950 -200 5750 -375 
Q 5475 175 4900 950 
Q 5075 1050 5275 1225 
z
M 4200 1975 
L 4200 2775 
L 3575 2775 
Q 3325 2250 3175 1975 
L 4200 1975 
z
" transform="scale(0.015625)"/>
       <path id="SimHei-8f6e" d="M 2200 3350 
Q 2175 3050 2175 2750 
L 2175 2425 
Q 2575 2425 2850 2450 
L 2850 2025 
Q 2550 2050 2175 2050 
L 2175 1150 
L 2975 1250 
Q 2925 1075 2925 850 
Q 2625 825 2175 750 
Q 2175 150 2200 -650 
L 1700 -650 
Q 1725 125 1725 700 
Q 700 550 400 475 
Q 300 775 250 975 
Q 600 1000 1725 1100 
L 1725 2050 
Q 1425 2050 1100 2025 
Q 775 2000 475 1925 
L 300 2425 
Q 450 2550 650 2900 
Q 850 3250 1075 3850 
Q 750 3850 275 3825 
L 275 4275 
Q 750 4250 1200 4250 
Q 1375 4875 1425 5200 
Q 1675 5075 1950 5025 
Q 1825 4750 1650 4250 
L 2075 4250 
Q 2600 4250 2975 4275 
L 2975 3825 
Q 2550 3850 2100 3850 
L 1550 3850 
Q 1175 2900 900 2425 
L 1725 2425 
Q 1700 3050 1700 3350 
L 2200 3350 
z
M 3750 1625 
Q 4750 2075 5200 2550 
Q 5475 2225 5625 2125 
Q 5175 1875 4750 1650 
Q 4325 1425 3750 1175 
L 3750 225 
Q 3750 -75 4050 -100 
L 4925 -100 
Q 5250 -125 5325 137 
Q 5400 400 5400 600 
Q 5800 350 5975 300 
Q 5750 -225 5612 -362 
Q 5475 -500 5175 -500 
L 3850 -500 
Q 3300 -500 3300 0 
L 3300 1900 
Q 3300 2475 3275 2900 
L 3775 2900 
Q 3750 2450 3750 2100 
L 3750 1625 
z
M 4375 4800 
Q 4875 3975 5337 3650 
Q 5800 3325 6200 3125 
Q 5975 2875 5825 2650 
Q 5200 3075 4825 3487 
Q 4450 3900 4200 4350 
Q 3875 3825 3587 3412 
Q 3300 3000 2925 2625 
Q 2725 2800 2450 3000 
Q 2775 3200 3037 3487 
Q 3300 3775 3512 4150 
Q 3725 4525 3950 5275 
Q 4300 5100 4550 5000 
L 4375 4800 
z
" transform="scale(0.015625)"/>
       <path id="SimHei-6570" d="M 4525 4925 
Q 4475 4800 4400 4587 
Q 4325 4375 4175 3825 
L 5325 3825 
Q 5575 3825 5925 3850 
L 5925 3400 
Q 5650 3425 5500 3425 
Q 5500 3025 5362 2162 
Q 5225 1300 4875 675 
Q 5125 375 5437 137 
Q 5750 -100 6025 -200 
Q 5725 -425 5625 -625 
Q 5325 -450 5075 -225 
Q 4825 0 4575 325 
Q 4300 25 3987 -187 
Q 3675 -400 3200 -650 
Q 3075 -425 2850 -300 
Q 3225 -150 3650 125 
Q 4075 400 4300 675 
Q 4125 1025 3962 1425 
Q 3800 1825 3675 2475 
Q 3600 2275 3425 1950 
Q 3250 2050 3000 2150 
Q 3400 2850 3650 3675 
Q 3900 4500 3975 5100 
Q 4275 4975 4525 4925 
z
M 2100 2250 
Q 2000 2150 1875 1925 
L 3250 1925 
Q 3100 1300 2725 675 
Q 3125 525 3350 400 
Q 3225 225 3125 25 
Q 2900 175 2450 325 
Q 1950 -225 725 -650 
Q 600 -375 400 -275 
Q 1575 0 2000 475 
Q 1300 650 850 775 
Q 1000 1000 1250 1525 
Q 1000 1525 425 1500 
L 425 1950 
Q 900 1925 1400 1925 
Q 1500 2150 1550 2425 
Q 1825 2325 2100 2250 
z
M 1775 3950 
Q 1775 4550 1750 5100 
L 2250 5100 
Q 2225 4575 2225 3950 
Q 3075 3950 3425 3975 
L 3425 3525 
Q 3075 3550 2225 3550 
Q 2225 2825 2250 2425 
L 1750 2425 
Q 1775 2775 1775 3300 
Q 1650 3100 1300 2787 
Q 950 2475 650 2300 
Q 525 2525 275 2625 
Q 500 2700 875 2975 
Q 1250 3250 1450 3550 
Q 950 3550 500 3525 
L 500 3975 
Q 925 3950 1775 3950 
z
M 3975 3175 
Q 4200 1700 4600 1125 
Q 4850 1700 4937 2287 
Q 5025 2875 5050 3425 
L 4075 3425 
L 3975 3175 
z
M 1450 1000 
Q 1750 925 2275 800 
Q 2475 1050 2650 1525 
L 1725 1525 
Q 1600 1275 1450 1000 
z
M 3325 4825 
Q 3200 4625 3125 4450 
Q 3050 4275 2925 4025 
Q 2725 4125 2525 4175 
Q 2725 4500 2900 5000 
Q 3150 4875 3325 4825 
z
M 2575 3375 
Q 2900 3050 3200 2725 
Q 3050 2600 2875 2425 
Q 2525 2850 2300 3100 
Q 2450 3225 2575 3375 
z
M 925 5000 
Q 1275 4650 1500 4300 
L 1125 4075 
Q 950 4425 600 4725 
Q 825 4875 925 5000 
z
" transform="scale(0.015625)"/>
      </defs>
      <use xlink:href="#SimHei-8bad"/>
      <use xlink:href="#SimHei-7ec3" x="100"/>
      <use xlink:href="#SimHei-8f6e" x="200"/>
      <use xlink:href="#SimHei-6570" x="300"/>
     </g>
    </g>
   </g>
   <g id="matplotlib.axis_2">
    <g id="ytick_1">
     <g id="line2d_13">
      <path d="M 130.464 156.825 
L 782.784 156.825 
" clip-path="url(#paf026e5de0)" style="fill: none; stroke-dasharray: 2.96,1.28; stroke-dashoffset: 0; stroke: #b0b0b0; stroke-width: 0.8"/>
     </g>
     <g id="line2d_14">
      <defs>
       <path id="m1012c2a498" d="M 0 0 
L -3.5 0 
" style="stroke: #000000; stroke-width: 0.8"/>
      </defs>
      <g>
       <use xlink:href="#m1012c2a498" x="130.464" y="156.825" style="stroke: #000000; stroke-width: 0.8"/>
      </g>
     </g>
     <g id="text_8">
      <!-- 0.50 -->
      <g transform="translate(101.198375 160.624219)scale(0.1 -0.1)">
       <defs>
        <path id="DejaVuSans-2e" d="M 684 794 
L 1344 794 
L 1344 0 
L 684 0 
L 684 794 
z
" transform="scale(0.015625)"/>
       </defs>
       <use xlink:href="#DejaVuSans-30"/>
       <use xlink:href="#DejaVuSans-2e" x="63.623047"/>
       <use xlink:href="#DejaVuSans-35" x="95.410156"/>
       <use xlink:href="#DejaVuSans-30" x="159.033203"/>
      </g>
     </g>
    </g>
    <g id="ytick_2">
     <g id="line2d_15">
      <path d="M 130.464 124.6236 
L 782.784 124.6236 
" clip-path="url(#paf026e5de0)" style="fill: none; stroke-dasharray: 2.96,1.28; stroke-dashoffset: 0; stroke: #b0b0b0; stroke-width: 0.8"/>
     </g>
     <g id="line2d_16">
      <g>
       <use xlink:href="#m1012c2a498" x="130.464" y="124.6236" style="stroke: #000000; stroke-width: 0.8"/>
      </g>
     </g>
     <g id="text_9">
      <!-- 0.55 -->
      <g transform="translate(101.198375 128.422819)scale(0.1 -0.1)">
       <use xlink:href="#DejaVuSans-30"/>
       <use xlink:href="#DejaVuSans-2e" x="63.623047"/>
       <use xlink:href="#DejaVuSans-35" x="95.410156"/>
       <use xlink:href="#DejaVuSans-35" x="159.033203"/>
      </g>
     </g>
    </g>
    <g id="ytick_3">
     <g id="line2d_17">
      <path d="M 130.464 92.4222 
L 782.784 92.4222 
" clip-path="url(#paf026e5de0)" style="fill: none; stroke-dasharray: 2.96,1.28; stroke-dashoffset: 0; stroke: #b0b0b0; stroke-width: 0.8"/>
     </g>
     <g id="line2d_18">
      <g>
       <use xlink:href="#m1012c2a498" x="130.464" y="92.4222" style="stroke: #000000; stroke-width: 0.8"/>
      </g>
     </g>
     <g id="text_10">
      <!-- 0.60 -->
      <g transform="translate(101.198375 96.221419)scale(0.1 -0.1)">
       <defs>
        <path id="DejaVuSans-36" d="M 2113 2584 
Q 1688 2584 1439 2293 
Q 1191 2003 1191 1497 
Q 1191 994 1439 701 
Q 1688 409 2113 409 
Q 2538 409 2786 701 
Q 3034 994 3034 1497 
Q 3034 2003 2786 2293 
Q 2538 2584 2113 2584 
z
M 3366 4563 
L 3366 3988 
Q 3128 4100 2886 4159 
Q 2644 4219 2406 4219 
Q 1781 4219 1451 3797 
Q 1122 3375 1075 2522 
Q 1259 2794 1537 2939 
Q 1816 3084 2150 3084 
Q 2853 3084 3261 2657 
Q 3669 2231 3669 1497 
Q 3669 778 3244 343 
Q 2819 -91 2113 -91 
Q 1303 -91 875 529 
Q 447 1150 447 2328 
Q 447 3434 972 4092 
Q 1497 4750 2381 4750 
Q 2619 4750 2861 4703 
Q 3103 4656 3366 4563 
z
" transform="scale(0.015625)"/>
       </defs>
       <use xlink:href="#DejaVuSans-30"/>
       <use xlink:href="#DejaVuSans-2e" x="63.623047"/>
       <use xlink:href="#DejaVuSans-36" x="95.410156"/>
       <use xlink:href="#DejaVuSans-30" x="159.033203"/>
      </g>
     </g>
    </g>
    <g id="ytick_4">
     <g id="line2d_19">
      <path d="M 130.464 60.2208 
L 782.784 60.2208 
" clip-path="url(#paf026e5de0)" style="fill: none; stroke-dasharray: 2.96,1.28; stroke-dashoffset: 0; stroke: #b0b0b0; stroke-width: 0.8"/>
     </g>
     <g id="line2d_20">
      <g>
       <use xlink:href="#m1012c2a498" x="130.464" y="60.2208" style="stroke: #000000; stroke-width: 0.8"/>
      </g>
     </g>
     <g id="text_11">
      <!-- 0.65 -->
      <g transform="translate(101.198375 64.020019)scale(0.1 -0.1)">
       <use xlink:href="#DejaVuSans-30"/>
       <use xlink:href="#DejaVuSans-2e" x="63.623047"/>
       <use xlink:href="#DejaVuSans-36" x="95.410156"/>
       <use xlink:href="#DejaVuSans-35" x="159.033203"/>
      </g>
     </g>
    </g>
    <g id="text_12">
     <!-- F分数 -->
     <g transform="translate(72.198375 58.9708)scale(0.1 -0.1)">
      <defs>
       <path id="SimHei-46" d="M 2925 3925 
L 875 3925 
L 875 2525 
L 2425 2525 
L 2425 2050 
L 875 2050 
L 875 125 
L 300 125 
L 300 4400 
L 2925 4400 
L 2925 3925 
z
" transform="scale(0.015625)"/>
       <path id="SimHei-5206" d="M 1000 -650 
Q 825 -375 575 -225 
Q 975 -75 1300 137 
Q 1625 350 1875 662 
Q 2125 975 2250 1350 
Q 2375 1725 2425 2275 
Q 1850 2275 1500 2250 
L 1500 2775 
Q 1900 2750 2525 2750 
L 5025 2750 
Q 4975 2375 4950 2100 
L 4750 250 
Q 4700 -200 4350 -350 
Q 4000 -500 3575 -525 
Q 3550 -275 3325 50 
Q 3850 25 4037 87 
Q 4225 150 4275 525 
L 4450 2275 
L 2950 2275 
Q 2875 1625 2737 1187 
Q 2600 750 2350 425 
Q 2100 100 1750 -175 
Q 1400 -450 1000 -650 
z
M 3950 5175 
Q 4125 4650 4662 3975 
Q 5200 3300 6175 2800 
Q 5975 2625 5775 2275 
Q 5325 2600 4987 2887 
Q 4650 3175 4425 3425 
Q 4200 3675 3925 4137 
Q 3650 4600 3475 5000 
Q 3750 5075 3950 5175 
z
M 2700 4825 
Q 2475 4425 2325 4125 
Q 2175 3825 2025 3587 
Q 1875 3350 1575 2950 
Q 1275 2550 850 2125 
Q 625 2350 400 2475 
Q 900 2925 1187 3300 
Q 1475 3675 1737 4112 
Q 2000 4550 2200 5075 
Q 2400 4925 2700 4825 
z
" transform="scale(0.015625)"/>
      </defs>
      <use xlink:href="#SimHei-46"/>
      <use xlink:href="#SimHei-5206" x="50"/>
      <use xlink:href="#SimHei-6570" x="150"/>
     </g>
    </g>
   </g>
   <g id="line2d_21">
    <path d="M 142.324364 114.803226 
L 201.626182 120.764172 
L 260.928 102.626974 
L 320.229818 95.561734 
L 355.810909 87.86392 
L 379.531636 87.321853 
L 415.112727 106.223404 
L 426.973091 98.778059 
L 438.833455 90.379394 
L 462.554182 82.98343 
L 474.414545 89.52009 
L 486.274909 94.87531 
L 498.135273 86.663818 
L 545.576727 104.775196 
L 616.738909 108.542632 
L 711.621818 139.340053 
" clip-path="url(#paf026e5de0)" style="fill: none; stroke: #d80552; stroke-width: 1.5; stroke-linecap: square"/>
   </g>
   <g id="line2d_22">
    <path d="M 142.324364 108.664628 
L 177.905455 106.154738 
L 213.486545 108.754473 
L 249.067636 109.555344 
L 320.229818 93.874551 
L 355.810909 101.103837 
L 438.833455 91.3672 
L 450.693818 107.123813 
L 462.554182 96.789136 
L 474.414545 86.754994 
L 486.274909 89.656464 
L 498.135273 89.782505 
L 557.437091 97.758531 
L 616.738909 91.953495 
L 676.040727 104.787935 
L 711.621818 122.328522 
" clip-path="url(#paf026e5de0)" style="fill: none; stroke: #4b65fe; stroke-width: 1.5; stroke-linecap: square"/>
   </g>
   <g id="PathCollection_1">
    <defs>
     <path id="m2046cdc4cc" d="M 0 -2.738613 
L -2.738613 2.738613 
L 2.738613 2.738613 
z
" style="stroke: #d80552"/>
    </defs>
    <g clip-path="url(#paf026e5de0)">
     <use xlink:href="#m2046cdc4cc" x="462.554182" y="82.98343" style="fill: #d80552; stroke: #d80552"/>
    </g>
   </g>
   <g id="PathCollection_2">
    <defs>
     <path id="m31c7422626" d="M -2.738613 0 
L 2.738613 0 
M 0 2.738613 
L 0 -2.738613 
" style="stroke: #d80552; stroke-width: 1.5"/>
    </defs>
    <g clip-path="url(#paf026e5de0)">
     <use xlink:href="#m31c7422626" x="498.135273" y="86.01979" style="fill: #d80552; stroke: #d80552; stroke-width: 1.5"/>
    </g>
   </g>
   <g id="PathCollection_3">
    <defs>
     <path id="mea8ac2c7e4" d="M -2.5 2.5 
L 2.5 2.5 
L 2.5 -2.5 
L -2.5 -2.5 
z
" style="stroke: #d80552"/>
    </defs>
    <g clip-path="url(#paf026e5de0)">
     <use xlink:href="#mea8ac2c7e4" x="379.531636" y="87.321853" style="fill: #d80552; stroke: #d80552"/>
    </g>
   </g>
   <g id="PathCollection_4">
    <defs>
     <path id="m7c0c0f827f" d="M 0 -2.738613 
L -2.738613 2.738613 
L 2.738613 2.738613 
z
" style="stroke: #4b65fe"/>
    </defs>
    <g clip-path="url(#paf026e5de0)">
     <use xlink:href="#m7c0c0f827f" x="474.414545" y="86.754994" style="fill: #4b65fe; stroke: #4b65fe"/>
    </g>
   </g>
   <g id="PathCollection_5">
    <defs>
     <path id="mf00c424b5c" d="M -2.738613 0 
L 2.738613 0 
M 0 2.738613 
L 0 -2.738613 
" style="stroke: #4b65fe; stroke-width: 1.5"/>
    </defs>
    <g clip-path="url(#paf026e5de0)">
     <use xlink:href="#mf00c424b5c" x="486.274909" y="89.656464" style="fill: #4b65fe; stroke: #4b65fe; stroke-width: 1.5"/>
    </g>
   </g>
   <g id="PathCollection_6">
    <defs>
     <path id="m44fec26c22" d="M -2.5 2.5 
L 2.5 2.5 
L 2.5 -2.5 
L -2.5 -2.5 
z
" style="stroke: #4b65fe"/>
    </defs>
    <g clip-path="url(#paf026e5de0)">
     <use xlink:href="#m44fec26c22" x="498.135273" y="89.782505" style="fill: #4b65fe; stroke: #4b65fe"/>
    </g>
   </g>
   <g id="patch_3">
    <path d="M 130.464 156.825 
L 130.464 60.2208 
" style="fill: none; opacity: 0.3; stroke: #000000; stroke-width: 0.8; stroke-linejoin: miter; stroke-linecap: square"/>
   </g>
   <g id="patch_4">
    <path d="M 782.784 156.825 
L 782.784 60.2208 
" style="fill: none; opacity: 0"/>
   </g>
   <g id="patch_5">
    <path d="M 130.464 156.825 
L 782.784 156.825 
" style="fill: none; opacity: 0.3; stroke: #000000; stroke-width: 0.8; stroke-linejoin: miter; stroke-linecap: square"/>
   </g>
   <g id="patch_6">
    <path d="M 130.464 60.2208 
L 782.784 60.2208 
" style="fill: none; opacity: 0"/>
   </g>
   <g id="text_13">
    <!-- 0.615 -->
    <g transform="translate(456.624 76.54315)scale(0.0833 -0.0833)">
     <use xlink:href="#DejaVuSans-30"/>
     <use xlink:href="#DejaVuSans-2e" x="63.623047"/>
     <use xlink:href="#DejaVuSans-36" x="95.410156"/>
     <use xlink:href="#DejaVuSans-31" x="159.033203"/>
     <use xlink:href="#DejaVuSans-35" x="222.65625"/>
    </g>
   </g>
   <g id="text_14">
    <!-- 0.609 -->
    <g transform="translate(498.135273 80.223538)scale(0.0833 -0.0833)">
     <defs>
      <path id="DejaVuSans-39" d="M 703 97 
L 703 672 
Q 941 559 1184 500 
Q 1428 441 1663 441 
Q 2288 441 2617 861 
Q 2947 1281 2994 2138 
Q 2813 1869 2534 1725 
Q 2256 1581 1919 1581 
Q 1219 1581 811 2004 
Q 403 2428 403 3163 
Q 403 3881 828 4315 
Q 1253 4750 1959 4750 
Q 2769 4750 3195 4129 
Q 3622 3509 3622 2328 
Q 3622 1225 3098 567 
Q 2575 -91 1691 -91 
Q 1453 -91 1209 -44 
Q 966 3 703 97 
z
M 1959 2075 
Q 2384 2075 2632 2365 
Q 2881 2656 2881 3163 
Q 2881 3666 2632 3958 
Q 2384 4250 1959 4250 
Q 1534 4250 1286 3958 
Q 1038 3666 1038 3163 
Q 1038 2656 1286 2365 
Q 1534 2075 1959 2075 
z
" transform="scale(0.015625)"/>
     </defs>
     <use xlink:href="#DejaVuSans-30"/>
     <use xlink:href="#DejaVuSans-2e" x="63.623047"/>
     <use xlink:href="#DejaVuSans-36" x="95.410156"/>
     <use xlink:href="#DejaVuSans-30" x="159.033203"/>
     <use xlink:href="#DejaVuSans-39" x="222.65625"/>
    </g>
   </g>
   <g id="text_15">
    <!-- 0.608 -->
    <g transform="translate(379.531636 80.881573)scale(0.0833 -0.0833)">
     <defs>
      <path id="DejaVuSans-38" d="M 2034 2216 
Q 1584 2216 1326 1975 
Q 1069 1734 1069 1313 
Q 1069 891 1326 650 
Q 1584 409 2034 409 
Q 2484 409 2743 651 
Q 3003 894 3003 1313 
Q 3003 1734 2745 1975 
Q 2488 2216 2034 2216 
z
M 1403 2484 
Q 997 2584 770 2862 
Q 544 3141 544 3541 
Q 544 4100 942 4425 
Q 1341 4750 2034 4750 
Q 2731 4750 3128 4425 
Q 3525 4100 3525 3541 
Q 3525 3141 3298 2862 
Q 3072 2584 2669 2484 
Q 3125 2378 3379 2068 
Q 3634 1759 3634 1313 
Q 3634 634 3220 271 
Q 2806 -91 2034 -91 
Q 1263 -91 848 271 
Q 434 634 434 1313 
Q 434 1759 690 2068 
Q 947 2378 1403 2484 
z
M 1172 3481 
Q 1172 3119 1398 2916 
Q 1625 2713 2034 2713 
Q 2441 2713 2670 2916 
Q 2900 3119 2900 3481 
Q 2900 3844 2670 4047 
Q 2441 4250 2034 4250 
Q 1625 4250 1398 4047 
Q 1172 3844 1172 3481 
z
" transform="scale(0.015625)"/>
     </defs>
     <use xlink:href="#DejaVuSans-30"/>
     <use xlink:href="#DejaVuSans-2e" x="63.623047"/>
     <use xlink:href="#DejaVuSans-36" x="95.410156"/>
     <use xlink:href="#DejaVuSans-30" x="159.033203"/>
     <use xlink:href="#DejaVuSans-38" x="222.65625"/>
    </g>
   </g>
   <g id="text_16">
    <!-- 0.609 -->
    <g transform="translate(462.554182 99.635554)scale(0.0833 -0.0833)">
     <use xlink:href="#DejaVuSans-30"/>
     <use xlink:href="#DejaVuSans-2e" x="63.623047"/>
     <use xlink:href="#DejaVuSans-36" x="95.410156"/>
     <use xlink:href="#DejaVuSans-30" x="159.033203"/>
     <use xlink:href="#DejaVuSans-39" x="222.65625"/>
    </g>
   </g>
   <g id="text_17">
    <!-- 0.604 -->
    <g transform="translate(480.344727 108.977304)scale(0.0833 -0.0833)">
     <use xlink:href="#DejaVuSans-30"/>
     <use xlink:href="#DejaVuSans-2e" x="63.623047"/>
     <use xlink:href="#DejaVuSans-36" x="95.410156"/>
     <use xlink:href="#DejaVuSans-30" x="159.033203"/>
     <use xlink:href="#DejaVuSans-34" x="222.65625"/>
    </g>
   </g>
   <g id="text_18">
    <!-- 0.604 -->
    <g transform="translate(494.577164 99.442925)scale(0.0833 -0.0833)">
     <use xlink:href="#DejaVuSans-30"/>
     <use xlink:href="#DejaVuSans-2e" x="63.623047"/>
     <use xlink:href="#DejaVuSans-36" x="95.410156"/>
     <use xlink:href="#DejaVuSans-30" x="159.033203"/>
     <use xlink:href="#DejaVuSans-34" x="222.65625"/>
    </g>
   </g>
   <g id="text_19">
    <!-- 训练轮数与F分数曲线 -->
    <g transform="translate(390.124 54.2208)scale(0.14 -0.14)">
     <defs>
      <path id="SimHei-4e0e" d="M 5350 100 
Q 5275 -300 4925 -425 
Q 4575 -550 3900 -600 
Q 3875 -375 3650 -25 
Q 4375 -50 4575 0 
Q 4775 50 4837 225 
Q 4900 400 5100 2350 
L 1125 2350 
Q 1450 4350 1475 5200 
Q 1800 5150 2075 5125 
Q 1975 4825 1900 4275 
L 4900 4275 
Q 5400 4275 5800 4300 
L 5800 3825 
Q 5400 3850 4950 3850 
L 1850 3850 
L 1700 2750 
L 5675 2750 
Q 5625 2450 5575 2050 
L 5350 100 
z
M 3675 1350 
Q 4125 1350 4500 1375 
L 4500 875 
Q 4125 900 3850 900 
L 1450 900 
Q 1000 900 500 875 
L 500 1375 
Q 1000 1350 1450 1350 
L 3675 1350 
z
" transform="scale(0.015625)"/>
      <path id="SimHei-66f2" d="M 5825 500 
Q 5825 -200 5850 -550 
L 5275 -550 
L 5275 -50 
L 1150 -50 
L 1150 -550 
L 575 -550 
Q 600 125 600 550 
L 600 2775 
Q 600 3425 575 3900 
L 2150 3900 
L 2150 4450 
Q 2125 4850 2125 5150 
L 2700 5150 
Q 2650 4825 2650 4475 
L 2650 3900 
L 3700 3900 
L 3700 4525 
Q 3700 4850 3675 5175 
L 4250 5175 
Q 4225 4875 4225 4550 
L 4225 3900 
L 5850 3900 
Q 5825 3525 5825 2750 
L 5825 500 
z
M 3700 325 
L 3700 1875 
L 2650 1875 
L 2650 325 
L 3700 325 
z
M 5275 325 
L 5275 1875 
L 4225 1875 
L 4225 325 
L 5275 325 
z
M 2150 325 
L 2150 1875 
L 1150 1875 
L 1150 325 
L 2150 325 
z
M 3700 2250 
L 3700 3525 
L 2650 3525 
L 2650 2250 
L 3700 2250 
z
M 5275 2250 
L 5275 3525 
L 4225 3525 
L 4225 2250 
L 5275 2250 
z
M 2150 2250 
L 2150 3525 
L 1150 3525 
L 1150 2250 
L 2150 2250 
z
" transform="scale(0.015625)"/>
      <path id="SimHei-7ebf" d="M 3450 4300 
Q 3450 4675 3375 5125 
Q 3700 5100 4050 5050 
Q 3975 4900 3950 4562 
Q 3925 4225 3950 3600 
L 4800 3750 
Q 5225 3850 5650 3975 
L 5750 3500 
Q 5325 3450 4875 3375 
L 3975 3200 
Q 3975 2800 4025 2500 
L 5000 2675 
Q 5500 2775 5950 2925 
L 6025 2450 
Q 5575 2375 5075 2275 
L 4100 2100 
Q 4150 1600 4350 1175 
Q 4575 1350 4787 1575 
Q 5000 1800 5175 2075 
Q 5550 1775 5750 1675 
Q 5425 1525 5237 1337 
Q 5050 1150 4625 750 
Q 4925 250 5162 112 
Q 5400 -25 5500 100 
Q 5600 225 5675 625 
Q 5900 450 6200 350 
Q 5775 -750 5275 -537 
Q 4775 -325 4225 450 
Q 3875 175 3537 -62 
Q 3200 -300 2700 -550 
Q 2575 -300 2325 -100 
Q 2825 75 3175 275 
Q 3525 475 3975 850 
Q 3750 1350 3650 2025 
Q 2900 1900 2600 1800 
L 2525 2275 
Q 2825 2275 3550 2425 
Q 3500 2825 3500 3100 
Q 2825 2950 2575 2875 
L 2475 3350 
Q 2725 3350 3450 3500 
L 3450 4300 
z
M 1950 4875 
Q 1700 4650 1462 4237 
Q 1225 3825 825 3225 
Q 1425 3250 1650 3250 
Q 1875 3625 2050 4075 
Q 2300 3900 2600 3800 
Q 2350 3550 2087 3125 
Q 1825 2700 1175 1675 
Q 1850 1725 2375 1775 
Q 2300 1525 2300 1350 
Q 2125 1350 1525 1287 
Q 925 1225 550 1125 
Q 525 1375 400 1650 
Q 700 1725 950 2050 
Q 1200 2375 1475 2875 
Q 650 2825 425 2675 
Q 350 2950 200 3225 
Q 525 3450 825 3962 
Q 1125 4475 1375 5150 
Q 1625 4975 1950 4875 
z
M 2575 875 
Q 2550 600 2575 450 
Q 1950 325 1450 200 
Q 950 75 525 -75 
Q 450 200 250 475 
Q 950 550 1325 612 
Q 1700 675 2575 875 
z
M 4850 4025 
Q 4675 4300 4375 4675 
L 4775 4875 
Q 4875 4750 5275 4275 
Q 5025 4175 4850 4025 
z
" transform="scale(0.015625)"/>
     </defs>
     <use xlink:href="#SimHei-8bad"/>
     <use xlink:href="#SimHei-7ec3" x="100"/>
     <use xlink:href="#SimHei-8f6e" x="200"/>
     <use xlink:href="#SimHei-6570" x="300"/>
     <use xlink:href="#SimHei-4e0e" x="400"/>
     <use xlink:href="#SimHei-46" x="500"/>
     <use xlink:href="#SimHei-5206" x="550"/>
     <use xlink:href="#SimHei-6570" x="650"/>
     <use xlink:href="#SimHei-66f2" x="750"/>
     <use xlink:href="#SimHei-7ebf" x="850"/>
    </g>
   </g>
   <g id="legend_1">
    <g id="patch_7">
     <path d="M 719.584 156.0708 
L 777.184 156.0708 
Q 778.784 156.0708 778.784 154.4708 
L 778.784 65.8208 
Q 778.784 64.2208 777.184 64.2208 
L 719.584 64.2208 
Q 717.984 64.2208 717.984 65.8208 
L 717.984 154.4708 
Q 717.984 156.0708 719.584 156.0708 
z
" style="fill: #ffffff; opacity: 0.8; stroke: #cccccc; stroke-linejoin: miter"/>
    </g>
    <g id="line2d_23">
     <path d="M 721.184 70.2208 
L 729.184 70.2208 
L 737.184 70.2208 
" style="fill: none; stroke: #d80552; stroke-width: 1.5; stroke-linecap: square"/>
    </g>
    <g id="text_20">
     <!-- EGDTrack -->
     <g transform="translate(743.584 73.0208)scale(0.08 -0.08)">
      <defs>
       <path id="SimHei-45" d="M 2900 125 
L 350 125 
L 350 4400 
L 2775 4400 
L 2775 3925 
L 925 3925 
L 925 2600 
L 2625 2600 
L 2625 2125 
L 925 2125 
L 925 600 
L 2900 600 
L 2900 125 
z
" transform="scale(0.015625)"/>
       <path id="SimHei-47" d="M 2850 75 
L 2425 75 
L 2350 425 
Q 2250 275 2037 175 
Q 1825 75 1575 75 
Q 1050 75 637 562 
Q 225 1050 225 2125 
Q 225 3300 600 3875 
Q 975 4450 1625 4450 
Q 2200 4450 2525 4025 
Q 2850 3600 2850 2925 
L 2300 2925 
Q 2300 3450 2125 3712 
Q 1950 3975 1625 3975 
Q 1225 3975 1025 3562 
Q 825 3150 825 2175 
Q 825 1250 1075 900 
Q 1325 550 1650 550 
Q 1975 550 2162 787 
Q 2350 1025 2350 1525 
L 2350 1800 
L 1575 1800 
L 1575 2275 
L 2850 2275 
L 2850 75 
z
" transform="scale(0.015625)"/>
       <path id="SimHei-44" d="M 2925 2250 
Q 2925 1100 2437 612 
Q 1950 125 1125 125 
L 275 125 
L 275 4400 
L 1125 4400 
Q 2050 4400 2487 3900 
Q 2925 3400 2925 2250 
z
M 2325 2250 
Q 2325 3175 2025 3550 
Q 1725 3925 1125 3925 
L 850 3925 
L 850 600 
L 1125 600 
Q 1725 600 2025 962 
Q 2325 1325 2325 2250 
z
" transform="scale(0.015625)"/>
       <path id="SimHei-54" d="M 2850 3925 
L 1850 3925 
L 1850 125 
L 1275 125 
L 1275 3925 
L 275 3925 
L 275 4400 
L 2850 4400 
L 2850 3925 
z
" transform="scale(0.015625)"/>
       <path id="SimHei-72" d="M 2500 2425 
Q 2025 2500 1700 2287 
Q 1375 2075 1150 1550 
L 1150 125 
L 650 125 
L 650 2925 
L 1150 2925 
L 1150 2200 
Q 1375 2600 1712 2787 
Q 2050 2975 2500 2975 
L 2500 2425 
z
" transform="scale(0.015625)"/>
       <path id="SimHei-61" d="M 2875 125 
L 2275 125 
Q 2225 175 2200 262 
Q 2175 350 2175 475 
Q 2000 275 1750 175 
Q 1500 75 1225 75 
Q 825 75 550 275 
Q 275 475 275 850 
Q 275 1225 525 1450 
Q 775 1675 1300 1750 
Q 1650 1800 1912 1875 
Q 2175 1950 2175 2075 
Q 2175 2225 2062 2375 
Q 1950 2525 1575 2525 
Q 1275 2525 1137 2412 
Q 1000 2300 950 2100 
L 400 2100 
Q 450 2500 762 2737 
Q 1075 2975 1575 2975 
Q 2125 2975 2400 2725 
Q 2675 2475 2675 2025 
L 2675 650 
Q 2675 500 2725 375 
Q 2775 250 2875 125 
z
M 2175 1050 
L 2175 1550 
Q 2025 1500 1887 1462 
Q 1750 1425 1425 1375 
Q 1050 1325 937 1200 
Q 825 1075 825 900 
Q 825 750 937 637 
Q 1050 525 1275 525 
Q 1500 525 1762 650 
Q 2025 775 2175 1050 
z
" transform="scale(0.015625)"/>
       <path id="SimHei-63" d="M 2850 1250 
Q 2850 725 2487 400 
Q 2125 75 1575 75 
Q 1025 75 625 462 
Q 225 850 225 1525 
Q 225 2200 625 2587 
Q 1025 2975 1575 2975 
Q 2125 2975 2450 2687 
Q 2775 2400 2775 2000 
L 2225 2000 
Q 2200 2300 2012 2412 
Q 1825 2525 1575 2525 
Q 1275 2525 1025 2287 
Q 775 2050 775 1525 
Q 775 1000 1025 762 
Q 1275 525 1575 525 
Q 1900 525 2100 700 
Q 2300 875 2300 1250 
L 2850 1250 
z
" transform="scale(0.015625)"/>
       <path id="SimHei-6b" d="M 2925 125 
L 2350 125 
L 1450 1650 
L 875 1100 
L 875 125 
L 375 125 
L 375 4400 
L 875 4400 
L 875 1675 
L 2125 2925 
L 2750 2925 
L 1775 1975 
L 2925 125 
z
" transform="scale(0.015625)"/>
      </defs>
      <use xlink:href="#SimHei-45"/>
      <use xlink:href="#SimHei-47" x="50"/>
      <use xlink:href="#SimHei-44" x="100"/>
      <use xlink:href="#SimHei-54" x="150"/>
      <use xlink:href="#SimHei-72" x="200"/>
      <use xlink:href="#SimHei-61" x="250"/>
      <use xlink:href="#SimHei-63" x="300"/>
      <use xlink:href="#SimHei-6b" x="350"/>
     </g>
    </g>
    <g id="line2d_24">
     <path d="M 721.184 80.8208 
L 729.184 80.8208 
L 737.184 80.8208 
" style="fill: none; stroke: #4b65fe; stroke-width: 1.5; stroke-linecap: square"/>
    </g>
    <g id="text_21">
     <!-- BTSTrack -->
     <g transform="translate(743.584 83.6208)scale(0.08 -0.08)">
      <defs>
       <path id="SimHei-42" d="M 2950 1400 
Q 2950 675 2550 400 
Q 2150 125 1525 125 
L 275 125 
L 275 4400 
L 1575 4400 
Q 2200 4400 2512 4075 
Q 2825 3750 2825 3300 
Q 2825 2850 2612 2637 
Q 2400 2425 2175 2350 
Q 2475 2275 2712 2037 
Q 2950 1800 2950 1400 
z
M 2250 3300 
Q 2250 3625 2062 3775 
Q 1875 3925 1600 3925 
L 850 3925 
L 850 2600 
L 1575 2600 
Q 1850 2600 2050 2762 
Q 2250 2925 2250 3300 
z
M 2350 1400 
Q 2350 1800 2087 1962 
Q 1825 2125 1500 2125 
L 850 2125 
L 850 600 
L 1425 600 
Q 1875 600 2112 775 
Q 2350 950 2350 1400 
z
" transform="scale(0.015625)"/>
       <path id="SimHei-53" d="M 2900 1325 
Q 2900 750 2537 412 
Q 2175 75 1550 75 
Q 925 75 575 425 
Q 225 775 225 1300 
L 225 1475 
L 800 1475 
L 800 1325 
Q 800 950 1025 750 
Q 1250 550 1550 550 
Q 1950 550 2137 762 
Q 2325 975 2325 1275 
Q 2325 1525 2100 1737 
Q 1875 1950 1450 2125 
Q 850 2350 587 2625 
Q 325 2900 325 3275 
Q 325 3800 687 4125 
Q 1050 4450 1550 4450 
Q 2200 4450 2487 4062 
Q 2775 3675 2775 3225 
L 2200 3225 
Q 2225 3500 2050 3725 
Q 1875 3950 1550 3950 
Q 1250 3950 1075 3787 
Q 900 3625 900 3350 
Q 900 3125 1037 2962 
Q 1175 2800 1750 2575 
Q 2300 2350 2600 2037 
Q 2900 1725 2900 1325 
z
" transform="scale(0.015625)"/>
      </defs>
      <use xlink:href="#SimHei-42"/>
      <use xlink:href="#SimHei-54" x="50"/>
      <use xlink:href="#SimHei-53" x="100"/>
      <use xlink:href="#SimHei-54" x="150"/>
      <use xlink:href="#SimHei-72" x="200"/>
      <use xlink:href="#SimHei-61" x="250"/>
      <use xlink:href="#SimHei-63" x="300"/>
      <use xlink:href="#SimHei-6b" x="350"/>
     </g>
    </g>
    <g id="PathCollection_7">
     <g>
      <use xlink:href="#m2046cdc4cc" x="729.184" y="92.8958" style="fill: #d80552; stroke: #d80552"/>
     </g>
    </g>
    <g id="text_22">
     <!-- 排名1 -->
     <g transform="translate(743.584 94.9958)scale(0.08 -0.08)">
      <defs>
       <path id="SimHei-6392" d="M 225 1825 
Q 675 1900 1150 2075 
L 1150 3425 
L 950 3425 
Q 650 3425 350 3400 
L 350 3850 
Q 600 3825 950 3825 
L 1150 3825 
L 1150 4500 
Q 1150 4850 1125 5175 
L 1675 5175 
Q 1625 4900 1625 4500 
L 1625 3825 
Q 2075 3825 2275 3850 
L 2275 3400 
Q 1875 3425 1625 3425 
L 1625 2225 
Q 1950 2325 2275 2500 
Q 2275 2200 2300 2050 
Q 2075 1975 1625 1800 
L 1625 -100 
Q 1600 -425 1412 -500 
Q 1225 -575 700 -650 
Q 600 -225 450 -75 
Q 875 -125 1000 -112 
Q 1125 -100 1150 75 
L 1150 1650 
Q 850 1550 450 1300 
Q 375 1525 225 1825 
z
M 5050 5125 
Q 5025 4800 5025 4300 
L 5025 4000 
Q 5700 4000 6100 4050 
L 6100 3575 
Q 5725 3600 5525 3600 
L 5025 3600 
L 5025 2625 
Q 5625 2625 5950 2650 
L 5950 2175 
Q 5625 2200 5025 2200 
L 5025 1075 
Q 5750 1075 6150 1100 
L 6150 625 
Q 5850 650 5025 650 
L 5025 275 
Q 5025 75 5050 -600 
L 4550 -600 
L 4550 4300 
Q 4550 4850 4525 5125 
L 5050 5125 
z
M 3425 4350 
Q 3425 4925 3400 5150 
L 3925 5150 
Q 3900 4800 3900 4250 
L 3900 -600 
L 3400 -600 
Q 3425 -50 3425 275 
L 3425 650 
Q 2625 650 2225 625 
L 2225 1100 
Q 2550 1075 3425 1075 
L 3425 2200 
Q 2775 2200 2525 2150 
L 2525 2650 
Q 2750 2625 3425 2625 
L 3425 3600 
Q 2700 3600 2450 3575 
L 2450 4050 
Q 2725 4000 3425 4000 
L 3425 4350 
z
" transform="scale(0.015625)"/>
       <path id="SimHei-540d" d="M 2900 5000 
Q 2775 4875 2687 4750 
Q 2600 4625 2475 4450 
L 5350 4450 
Q 5050 4000 4512 3312 
Q 3975 2625 2975 2000 
L 5500 2000 
Q 5475 1625 5475 1225 
L 5475 200 
Q 5475 -225 5500 -625 
L 4975 -625 
L 4975 -75 
L 2250 -75 
L 2250 -650 
L 1750 -650 
Q 1775 -300 1775 150 
L 1775 1400 
Q 950 1050 625 950 
Q 525 1200 300 1425 
Q 950 1550 1737 1875 
Q 2525 2200 2950 2525 
Q 2400 3025 1975 3300 
Q 2150 3450 2325 3675 
Q 3125 3025 3375 2825 
Q 4000 3300 4500 4050 
L 2225 4050 
Q 1475 3150 1050 2825 
Q 900 2975 600 3150 
Q 1175 3525 1587 4012 
Q 2000 4500 2350 5250 
Q 2675 5075 2900 5000 
z
M 4975 325 
L 4975 1600 
L 2250 1600 
L 2250 325 
L 4975 325 
z
" transform="scale(0.015625)"/>
       <path id="SimHei-31" d="M 1400 3600 
Q 1075 3275 575 2975 
L 575 3450 
Q 1200 3875 1600 4450 
L 1900 4450 
L 1900 150 
L 1400 150 
L 1400 3600 
z
" transform="scale(0.015625)"/>
      </defs>
      <use xlink:href="#SimHei-6392"/>
      <use xlink:href="#SimHei-540d" x="100"/>
      <use xlink:href="#SimHei-31" x="200"/>
     </g>
    </g>
    <g id="PathCollection_8">
     <g>
      <use xlink:href="#m31c7422626" x="729.184" y="104.2708" style="fill: #d80552; stroke: #d80552; stroke-width: 1.5"/>
     </g>
    </g>
    <g id="text_23">
     <!-- 排名2 -->
     <g transform="translate(743.584 106.3708)scale(0.08 -0.08)">
      <defs>
       <path id="SimHei-32" d="M 300 250 
Q 325 625 650 925 
Q 975 1225 1475 1862 
Q 1975 2500 2125 2850 
Q 2275 3200 2237 3450 
Q 2200 3700 2000 3862 
Q 1800 4025 1537 4000 
Q 1275 3975 1037 3800 
Q 800 3625 675 3275 
L 200 3350 
Q 400 3925 712 4187 
Q 1025 4450 1450 4475 
Q 1700 4500 1900 4462 
Q 2100 4425 2312 4287 
Q 2525 4150 2662 3875 
Q 2800 3600 2762 3212 
Q 2725 2825 2375 2287 
Q 2025 1750 1025 600 
L 2825 600 
L 2825 150 
L 300 150 
L 300 250 
z
" transform="scale(0.015625)"/>
      </defs>
      <use xlink:href="#SimHei-6392"/>
      <use xlink:href="#SimHei-540d" x="100"/>
      <use xlink:href="#SimHei-32" x="200"/>
     </g>
    </g>
    <g id="PathCollection_9">
     <g>
      <use xlink:href="#mea8ac2c7e4" x="729.184" y="115.6458" style="fill: #d80552; stroke: #d80552"/>
     </g>
    </g>
    <g id="text_24">
     <!-- 排名3 -->
     <g transform="translate(743.584 117.7458)scale(0.08 -0.08)">
      <defs>
       <path id="SimHei-33" d="M 250 1225 
L 700 1300 
Q 800 975 1025 762 
Q 1250 550 1587 562 
Q 1925 575 2125 837 
Q 2325 1100 2300 1437 
Q 2275 1775 2037 1962 
Q 1800 2150 1275 2225 
L 1275 2550 
Q 1800 2600 2037 2825 
Q 2275 3050 2250 3412 
Q 2225 3775 1925 3937 
Q 1625 4100 1287 3975 
Q 950 3850 750 3275 
L 300 3350 
Q 450 3800 712 4100 
Q 975 4400 1425 4450 
Q 1875 4500 2212 4337 
Q 2550 4175 2687 3837 
Q 2825 3500 2725 3100 
Q 2625 2700 2150 2400 
Q 2500 2250 2687 1950 
Q 2875 1650 2812 1162 
Q 2750 675 2375 375 
Q 2000 75 1525 87 
Q 1050 100 700 387 
Q 350 675 250 1225 
z
" transform="scale(0.015625)"/>
      </defs>
      <use xlink:href="#SimHei-6392"/>
      <use xlink:href="#SimHei-540d" x="100"/>
      <use xlink:href="#SimHei-33" x="200"/>
     </g>
    </g>
    <g id="PathCollection_10">
     <g>
      <use xlink:href="#m7c0c0f827f" x="729.184" y="127.0208" style="fill: #4b65fe; stroke: #4b65fe"/>
     </g>
    </g>
    <g id="text_25">
     <!-- 排名1 -->
     <g transform="translate(743.584 129.1208)scale(0.08 -0.08)">
      <use xlink:href="#SimHei-6392"/>
      <use xlink:href="#SimHei-540d" x="100"/>
      <use xlink:href="#SimHei-31" x="200"/>
     </g>
    </g>
    <g id="PathCollection_11">
     <g>
      <use xlink:href="#mf00c424b5c" x="729.184" y="138.3958" style="fill: #4b65fe; stroke: #4b65fe; stroke-width: 1.5"/>
     </g>
    </g>
    <g id="text_26">
     <!-- 排名2 -->
     <g transform="translate(743.584 140.4958)scale(0.08 -0.08)">
      <use xlink:href="#SimHei-6392"/>
      <use xlink:href="#SimHei-540d" x="100"/>
      <use xlink:href="#SimHei-32" x="200"/>
     </g>
    </g>
    <g id="PathCollection_12">
     <g>
      <use xlink:href="#m44fec26c22" x="729.184" y="149.7708" style="fill: #4b65fe; stroke: #4b65fe"/>
     </g>
    </g>
    <g id="text_27">
     <!-- 排名3 -->
     <g transform="translate(743.584 151.8708)scale(0.08 -0.08)">
      <use xlink:href="#SimHei-6392"/>
      <use xlink:href="#SimHei-540d" x="100"/>
      <use xlink:href="#SimHei-33" x="200"/>
     </g>
    </g>
   </g>
  </g>
  <g id="axes_2">
   <g id="patch_8">
    <path d="M 130.464 301.7313 
L 782.784 301.7313 
L 782.784 205.1271 
L 130.464 205.1271 
z
" style="fill: #ffffff"/>
   </g>
   <g id="matplotlib.axis_3">
    <g id="xtick_7">
     <g id="line2d_25">
      <path d="M 130.464 301.7313 
L 130.464 205.1271 
" clip-path="url(#p08670fabc5)" style="fill: none; stroke-dasharray: 2.96,1.28; stroke-dashoffset: 0; stroke: #b0b0b0; stroke-width: 0.8"/>
     </g>
     <g id="line2d_26">
      <g>
       <use xlink:href="#m6abf54cd54" x="130.464" y="301.7313" style="stroke: #000000; stroke-width: 0.8"/>
      </g>
     </g>
     <g id="text_28">
      <!-- 0 -->
      <g transform="translate(127.28275 316.329737)scale(0.1 -0.1)">
       <use xlink:href="#DejaVuSans-30"/>
      </g>
     </g>
    </g>
    <g id="xtick_8">
     <g id="line2d_27">
      <path d="M 249.067636 301.7313 
L 249.067636 205.1271 
" clip-path="url(#p08670fabc5)" style="fill: none; stroke-dasharray: 2.96,1.28; stroke-dashoffset: 0; stroke: #b0b0b0; stroke-width: 0.8"/>
     </g>
     <g id="line2d_28">
      <g>
       <use xlink:href="#m6abf54cd54" x="249.067636" y="301.7313" style="stroke: #000000; stroke-width: 0.8"/>
      </g>
     </g>
     <g id="text_29">
      <!-- 10 -->
      <g transform="translate(242.705136 316.329737)scale(0.1 -0.1)">
       <use xlink:href="#DejaVuSans-31"/>
       <use xlink:href="#DejaVuSans-30" x="63.623047"/>
      </g>
     </g>
    </g>
    <g id="xtick_9">
     <g id="line2d_29">
      <path d="M 367.671273 301.7313 
L 367.671273 205.1271 
" clip-path="url(#p08670fabc5)" style="fill: none; stroke-dasharray: 2.96,1.28; stroke-dashoffset: 0; stroke: #b0b0b0; stroke-width: 0.8"/>
     </g>
     <g id="line2d_30">
      <g>
       <use xlink:href="#m6abf54cd54" x="367.671273" y="301.7313" style="stroke: #000000; stroke-width: 0.8"/>
      </g>
     </g>
     <g id="text_30">
      <!-- 20 -->
      <g transform="translate(361.308773 316.329737)scale(0.1 -0.1)">
       <use xlink:href="#DejaVuSans-32"/>
       <use xlink:href="#DejaVuSans-30" x="63.623047"/>
      </g>
     </g>
    </g>
    <g id="xtick_10">
     <g id="line2d_31">
      <path d="M 486.274909 301.7313 
L 486.274909 205.1271 
" clip-path="url(#p08670fabc5)" style="fill: none; stroke-dasharray: 2.96,1.28; stroke-dashoffset: 0; stroke: #b0b0b0; stroke-width: 0.8"/>
     </g>
     <g id="line2d_32">
      <g>
       <use xlink:href="#m6abf54cd54" x="486.274909" y="301.7313" style="stroke: #000000; stroke-width: 0.8"/>
      </g>
     </g>
     <g id="text_31">
      <!-- 30 -->
      <g transform="translate(479.912409 316.329737)scale(0.1 -0.1)">
       <use xlink:href="#DejaVuSans-33"/>
       <use xlink:href="#DejaVuSans-30" x="63.623047"/>
      </g>
     </g>
    </g>
    <g id="xtick_11">
     <g id="line2d_33">
      <path d="M 604.878545 301.7313 
L 604.878545 205.1271 
" clip-path="url(#p08670fabc5)" style="fill: none; stroke-dasharray: 2.96,1.28; stroke-dashoffset: 0; stroke: #b0b0b0; stroke-width: 0.8"/>
     </g>
     <g id="line2d_34">
      <g>
       <use xlink:href="#m6abf54cd54" x="604.878545" y="301.7313" style="stroke: #000000; stroke-width: 0.8"/>
      </g>
     </g>
     <g id="text_32">
      <!-- 40 -->
      <g transform="translate(598.516045 316.329737)scale(0.1 -0.1)">
       <use xlink:href="#DejaVuSans-34"/>
       <use xlink:href="#DejaVuSans-30" x="63.623047"/>
      </g>
     </g>
    </g>
    <g id="xtick_12">
     <g id="line2d_35">
      <path d="M 723.482182 301.7313 
L 723.482182 205.1271 
" clip-path="url(#p08670fabc5)" style="fill: none; stroke-dasharray: 2.96,1.28; stroke-dashoffset: 0; stroke: #b0b0b0; stroke-width: 0.8"/>
     </g>
     <g id="line2d_36">
      <g>
       <use xlink:href="#m6abf54cd54" x="723.482182" y="301.7313" style="stroke: #000000; stroke-width: 0.8"/>
      </g>
     </g>
     <g id="text_33">
      <!-- 50 -->
      <g transform="translate(717.119682 316.329737)scale(0.1 -0.1)">
       <use xlink:href="#DejaVuSans-35"/>
       <use xlink:href="#DejaVuSans-30" x="63.623047"/>
      </g>
     </g>
    </g>
    <g id="text_34">
     <!-- 训练轮数 -->
     <g transform="translate(742.784 330.417237)scale(0.1 -0.1)">
      <use xlink:href="#SimHei-8bad"/>
      <use xlink:href="#SimHei-7ec3" x="100"/>
      <use xlink:href="#SimHei-8f6e" x="200"/>
      <use xlink:href="#SimHei-6570" x="300"/>
     </g>
    </g>
   </g>
   <g id="matplotlib.axis_4">
    <g id="ytick_5">
     <g id="line2d_37">
      <path d="M 130.464 301.7313 
L 782.784 301.7313 
" clip-path="url(#p08670fabc5)" style="fill: none; stroke-dasharray: 2.96,1.28; stroke-dashoffset: 0; stroke: #b0b0b0; stroke-width: 0.8"/>
     </g>
     <g id="line2d_38">
      <g>
       <use xlink:href="#m1012c2a498" x="130.464" y="301.7313" style="stroke: #000000; stroke-width: 0.8"/>
      </g>
     </g>
     <g id="text_35">
      <!-- 0.50 -->
      <g transform="translate(101.198375 305.530519)scale(0.1 -0.1)">
       <use xlink:href="#DejaVuSans-30"/>
       <use xlink:href="#DejaVuSans-2e" x="63.623047"/>
       <use xlink:href="#DejaVuSans-35" x="95.410156"/>
       <use xlink:href="#DejaVuSans-30" x="159.033203"/>
      </g>
     </g>
    </g>
    <g id="ytick_6">
     <g id="line2d_39">
      <path d="M 130.464 269.5299 
L 782.784 269.5299 
" clip-path="url(#p08670fabc5)" style="fill: none; stroke-dasharray: 2.96,1.28; stroke-dashoffset: 0; stroke: #b0b0b0; stroke-width: 0.8"/>
     </g>
     <g id="line2d_40">
      <g>
       <use xlink:href="#m1012c2a498" x="130.464" y="269.5299" style="stroke: #000000; stroke-width: 0.8"/>
      </g>
     </g>
     <g id="text_36">
      <!-- 0.55 -->
      <g transform="translate(101.198375 273.329119)scale(0.1 -0.1)">
       <use xlink:href="#DejaVuSans-30"/>
       <use xlink:href="#DejaVuSans-2e" x="63.623047"/>
       <use xlink:href="#DejaVuSans-35" x="95.410156"/>
       <use xlink:href="#DejaVuSans-35" x="159.033203"/>
      </g>
     </g>
    </g>
    <g id="ytick_7">
     <g id="line2d_41">
      <path d="M 130.464 237.3285 
L 782.784 237.3285 
" clip-path="url(#p08670fabc5)" style="fill: none; stroke-dasharray: 2.96,1.28; stroke-dashoffset: 0; stroke: #b0b0b0; stroke-width: 0.8"/>
     </g>
     <g id="line2d_42">
      <g>
       <use xlink:href="#m1012c2a498" x="130.464" y="237.3285" style="stroke: #000000; stroke-width: 0.8"/>
      </g>
     </g>
     <g id="text_37">
      <!-- 0.60 -->
      <g transform="translate(101.198375 241.127719)scale(0.1 -0.1)">
       <use xlink:href="#DejaVuSans-30"/>
       <use xlink:href="#DejaVuSans-2e" x="63.623047"/>
       <use xlink:href="#DejaVuSans-36" x="95.410156"/>
       <use xlink:href="#DejaVuSans-30" x="159.033203"/>
      </g>
     </g>
    </g>
    <g id="ytick_8">
     <g id="line2d_43">
      <path d="M 130.464 205.1271 
L 782.784 205.1271 
" clip-path="url(#p08670fabc5)" style="fill: none; stroke-dasharray: 2.96,1.28; stroke-dashoffset: 0; stroke: #b0b0b0; stroke-width: 0.8"/>
     </g>
     <g id="line2d_44">
      <g>
       <use xlink:href="#m1012c2a498" x="130.464" y="205.1271" style="stroke: #000000; stroke-width: 0.8"/>
      </g>
     </g>
     <g id="text_38">
      <!-- 0.65 -->
      <g transform="translate(101.198375 208.926319)scale(0.1 -0.1)">
       <use xlink:href="#DejaVuSans-30"/>
       <use xlink:href="#DejaVuSans-2e" x="63.623047"/>
       <use xlink:href="#DejaVuSans-36" x="95.410156"/>
       <use xlink:href="#DejaVuSans-35" x="159.033203"/>
      </g>
     </g>
    </g>
    <g id="text_39">
     <!-- 精准度 -->
     <g transform="translate(67.198375 203.8771)scale(0.1 -0.1)">
      <defs>
       <path id="SimHei-7cbe" d="M 5600 2300 
Q 5575 1825 5575 1400 
L 5575 -100 
Q 5575 -475 5337 -550 
Q 5100 -625 4775 -675 
Q 4700 -375 4550 -175 
Q 4900 -175 5012 -137 
Q 5125 -100 5125 75 
L 5125 325 
L 3425 325 
L 3425 -625 
L 2975 -625 
Q 3000 75 3000 925 
Q 3000 1775 2975 2300 
L 5600 2300 
z
M 1275 4450 
Q 1275 4875 1250 5125 
L 1750 5125 
Q 1725 4675 1725 4425 
L 1725 3175 
Q 2125 3175 2450 3200 
L 2450 2750 
Q 2125 2775 1725 2775 
L 1725 325 
Q 1725 -75 1750 -650 
L 1250 -650 
Q 1275 -75 1275 325 
L 1275 1925 
Q 1050 1350 575 675 
Q 400 825 200 1000 
Q 450 1275 712 1737 
Q 975 2200 1150 2775 
Q 700 2775 350 2750 
L 350 3200 
Q 700 3175 1275 3175 
L 1275 4450 
z
M 4050 4550 
Q 4050 4850 4025 5125 
L 4525 5125 
Q 4500 4800 4500 4550 
L 5050 4550 
Q 5475 4550 5800 4575 
L 5800 4175 
Q 5450 4200 5050 4200 
L 4500 4200 
L 4500 3725 
L 4850 3725 
Q 5250 3725 5625 3750 
L 5625 3350 
Q 5250 3375 4825 3375 
L 4500 3375 
L 4500 2950 
L 5100 2950 
Q 5550 2950 6075 2975 
L 6075 2575 
Q 5575 2600 5100 2600 
L 3600 2600 
Q 3200 2600 2625 2575 
L 2625 2975 
Q 3150 2950 3575 2950 
L 4050 2950 
L 4050 3375 
L 3675 3375 
Q 3300 3375 2975 3350 
L 2975 3750 
Q 3325 3725 3575 3725 
L 4050 3725 
L 4050 4200 
L 3650 4200 
Q 3250 4200 2800 4175 
L 2800 4575 
Q 3250 4550 3650 4550 
L 4050 4550 
z
M 5125 675 
L 5125 1175 
L 3425 1175 
L 3425 675 
L 5125 675 
z
M 5125 1525 
L 5125 1950 
L 3425 1950 
L 3425 1525 
L 5125 1525 
z
M 2650 4375 
Q 2300 3650 2175 3375 
Q 1975 3475 1775 3525 
Q 2025 4050 2200 4550 
Q 2475 4450 2650 4375 
z
M 2125 2350 
Q 2475 1900 2775 1475 
Q 2600 1350 2400 1200 
Q 2125 1700 1775 2075 
Q 1975 2200 2125 2350 
z
M 650 4525 
Q 900 4150 1175 3625 
Q 1025 3550 800 3400 
Q 600 3800 275 4300 
Q 500 4425 650 4525 
z
" transform="scale(0.015625)"/>
       <path id="SimHei-51c6" d="M 1600 2775 
Q 1900 3050 2275 3787 
Q 2650 4525 2800 5175 
Q 3075 5050 3400 4950 
Q 3250 4775 3000 4100 
L 4825 4100 
Q 5400 4100 5875 4125 
L 5875 3675 
Q 5375 3700 4825 3700 
L 4525 3700 
L 4525 2850 
Q 5250 2850 5700 2875 
L 5700 2425 
Q 5250 2450 4525 2450 
L 4525 1600 
Q 5275 1600 5700 1625 
L 5700 1200 
Q 5275 1225 4525 1225 
L 4525 375 
Q 5575 375 6050 400 
L 6050 -100 
Q 5575 -75 4975 -75 
L 2950 -75 
L 2950 -600 
L 2425 -600 
Q 2450 -150 2450 675 
L 2450 3050 
Q 2300 2775 2075 2400 
Q 1875 2650 1600 2775 
z
M 1675 2050 
Q 1425 1425 1200 850 
Q 975 275 775 -125 
Q 550 50 275 200 
Q 550 650 775 1112 
Q 1000 1575 1225 2300 
Q 1400 2125 1675 2050 
z
M 4025 1600 
L 4025 2450 
L 2950 2450 
L 2950 1600 
L 4025 1600 
z
M 4025 2850 
L 4025 3700 
L 2950 3700 
L 2950 2850 
L 4025 2850 
z
M 4025 375 
L 4025 1225 
L 2950 1225 
L 2950 375 
L 4025 375 
z
M 725 4775 
Q 850 4625 1162 4312 
Q 1475 4000 1750 3700 
Q 1525 3475 1375 3300 
Q 1100 3700 350 4450 
Q 550 4600 725 4775 
z
M 4150 5225 
Q 4600 4800 4800 4500 
Q 4625 4400 4400 4200 
Q 4225 4500 3775 4925 
Q 3925 5000 4150 5225 
z
" transform="scale(0.015625)"/>
       <path id="SimHei-5ea6" d="M 1750 1675 
Q 2450 1650 2875 1650 
L 5200 1650 
Q 4975 1250 4650 850 
Q 4325 450 4025 200 
Q 4350 50 4950 -50 
Q 5550 -150 6100 -150 
Q 5950 -300 5825 -650 
Q 5100 -550 4550 -412 
Q 4000 -275 3625 -100 
Q 3100 -325 2587 -462 
Q 2075 -600 1525 -675 
Q 1450 -475 1225 -250 
Q 1675 -250 2250 -125 
Q 2825 0 3250 200 
Q 2825 550 2400 1275 
L 1750 1250 
L 1750 1675 
z
M 2975 5075 
Q 3250 5150 3475 5250 
Q 3625 4975 3775 4525 
L 4700 4525 
Q 4975 4525 5700 4550 
L 5700 4100 
Q 5000 4125 4650 4125 
L 1375 4125 
Q 1375 3000 1350 2312 
Q 1325 1625 1212 950 
Q 1100 275 725 -525 
Q 500 -375 250 -300 
Q 650 400 762 1075 
Q 875 1750 887 2800 
Q 900 3850 875 4525 
L 3200 4525 
Q 3100 4850 2975 5075 
z
M 2475 3300 
Q 2475 3700 2450 3925 
L 2975 3925 
Q 2950 3725 2950 3300 
L 4300 3300 
Q 4300 3700 4275 3950 
L 4800 3950 
Q 4775 3650 4775 3300 
Q 5325 3300 5725 3325 
L 5725 2900 
Q 5350 2925 4775 2925 
Q 4775 2250 4800 1950 
L 2450 1950 
Q 2475 2350 2475 2925 
Q 2175 2925 1600 2900 
L 1600 3325 
Q 2175 3300 2475 3300 
z
M 4300 2350 
L 4300 2925 
L 2950 2925 
L 2950 2350 
L 4300 2350 
z
M 2875 1275 
Q 3200 775 3650 425 
Q 4025 700 4425 1275 
L 2900 1275 
L 2875 1275 
z
" transform="scale(0.015625)"/>
      </defs>
      <use xlink:href="#SimHei-7cbe"/>
      <use xlink:href="#SimHei-51c6" x="100"/>
      <use xlink:href="#SimHei-5ea6" x="200"/>
     </g>
    </g>
   </g>
   <g id="line2d_45">
    <path d="M 142.324364 253.247189 
L 201.626182 258.610966 
L 260.928 242.882652 
L 320.229818 234.020318 
L 355.810909 226.003437 
L 379.531636 226.210527 
L 415.112727 244.082318 
L 426.973091 236.626274 
L 438.833455 228.708562 
L 462.554182 221.099296 
L 474.414545 228.163947 
L 486.274909 232.470989 
L 498.135273 225.012427 
L 545.576727 240.335118 
L 616.738909 246.472798 
L 711.621818 278.329036 
" clip-path="url(#p08670fabc5)" style="fill: none; stroke: #d80552; stroke-width: 1.5; stroke-linecap: square"/>
   </g>
   <g id="line2d_46">
    <path d="M 142.324364 247.051579 
L 177.905455 240.468053 
L 213.486545 245.268432 
L 249.067636 248.834213 
L 320.229818 233.125003 
L 355.810909 236.497401 
L 438.833455 230.404901 
L 450.693818 247.634106 
L 462.554182 237.492261 
L 474.414545 226.713003 
L 486.274909 226.180795 
L 498.135273 228.562668 
L 557.437091 235.087183 
L 616.738909 230.285583 
L 676.040727 245.46498 
L 711.621818 259.009952 
" clip-path="url(#p08670fabc5)" style="fill: none; stroke: #4b65fe; stroke-width: 1.5; stroke-linecap: square"/>
   </g>
   <g id="patch_9">
    <path d="M 130.464 301.7313 
L 130.464 205.1271 
" style="fill: none; opacity: 0.3; stroke: #000000; stroke-width: 0.8; stroke-linejoin: miter; stroke-linecap: square"/>
   </g>
   <g id="patch_10">
    <path d="M 782.784 301.7313 
L 782.784 205.1271 
" style="fill: none; opacity: 0"/>
   </g>
   <g id="patch_11">
    <path d="M 130.464 301.7313 
L 782.784 301.7313 
" style="fill: none; opacity: 0.3; stroke: #000000; stroke-width: 0.8; stroke-linejoin: miter; stroke-linecap: square"/>
   </g>
   <g id="patch_12">
    <path d="M 130.464 205.1271 
L 782.784 205.1271 
" style="fill: none; opacity: 0"/>
   </g>
   <g id="text_40">
    <!-- 训练轮数与精准度曲线 -->
    <g transform="translate(386.624 199.1271)scale(0.14 -0.14)">
     <use xlink:href="#SimHei-8bad"/>
     <use xlink:href="#SimHei-7ec3" x="100"/>
     <use xlink:href="#SimHei-8f6e" x="200"/>
     <use xlink:href="#SimHei-6570" x="300"/>
     <use xlink:href="#SimHei-4e0e" x="400"/>
     <use xlink:href="#SimHei-7cbe" x="500"/>
     <use xlink:href="#SimHei-51c6" x="600"/>
     <use xlink:href="#SimHei-5ea6" x="700"/>
     <use xlink:href="#SimHei-66f2" x="800"/>
     <use xlink:href="#SimHei-7ebf" x="900"/>
    </g>
   </g>
   <g id="legend_2">
    <g id="patch_13">
     <path d="M 703.784 239.6271 
L 775.784 239.6271 
Q 777.784 239.6271 777.784 237.6271 
L 777.784 212.1271 
Q 777.784 210.1271 775.784 210.1271 
L 703.784 210.1271 
Q 701.784 210.1271 701.784 212.1271 
L 701.784 237.6271 
Q 701.784 239.6271 703.784 239.6271 
z
" style="fill: #ffffff; opacity: 0.8; stroke: #cccccc; stroke-linejoin: miter"/>
    </g>
    <g id="line2d_47">
     <path d="M 705.784 217.6271 
L 715.784 217.6271 
L 725.784 217.6271 
" style="fill: none; stroke: #d80552; stroke-width: 1.5; stroke-linecap: square"/>
    </g>
    <g id="text_41">
     <!-- EGDTrack -->
     <g transform="translate(733.784 221.1271)scale(0.1 -0.1)">
      <use xlink:href="#SimHei-45"/>
      <use xlink:href="#SimHei-47" x="50"/>
      <use xlink:href="#SimHei-44" x="100"/>
      <use xlink:href="#SimHei-54" x="150"/>
      <use xlink:href="#SimHei-72" x="200"/>
      <use xlink:href="#SimHei-61" x="250"/>
      <use xlink:href="#SimHei-63" x="300"/>
      <use xlink:href="#SimHei-6b" x="350"/>
     </g>
    </g>
    <g id="line2d_48">
     <path d="M 705.784 230.8771 
L 715.784 230.8771 
L 725.784 230.8771 
" style="fill: none; stroke: #4b65fe; stroke-width: 1.5; stroke-linecap: square"/>
    </g>
    <g id="text_42">
     <!-- BTSTrack -->
     <g transform="translate(733.784 234.3771)scale(0.1 -0.1)">
      <use xlink:href="#SimHei-42"/>
      <use xlink:href="#SimHei-54" x="50"/>
      <use xlink:href="#SimHei-53" x="100"/>
      <use xlink:href="#SimHei-54" x="150"/>
      <use xlink:href="#SimHei-72" x="200"/>
      <use xlink:href="#SimHei-61" x="250"/>
      <use xlink:href="#SimHei-63" x="300"/>
      <use xlink:href="#SimHei-6b" x="350"/>
     </g>
    </g>
   </g>
  </g>
  <g id="axes_3">
   <g id="patch_14">
    <path d="M 130.464 446.6376 
L 782.784 446.6376 
L 782.784 350.0334 
L 130.464 350.0334 
z
" style="fill: #ffffff"/>
   </g>
   <g id="matplotlib.axis_5">
    <g id="xtick_13">
     <g id="line2d_49">
      <path d="M 130.464 446.6376 
L 130.464 350.0334 
" clip-path="url(#p390d2d2de7)" style="fill: none; stroke-dasharray: 2.96,1.28; stroke-dashoffset: 0; stroke: #b0b0b0; stroke-width: 0.8"/>
     </g>
     <g id="line2d_50">
      <g>
       <use xlink:href="#m6abf54cd54" x="130.464" y="446.6376" style="stroke: #000000; stroke-width: 0.8"/>
      </g>
     </g>
     <g id="text_43">
      <!-- 0 -->
      <g transform="translate(127.28275 461.236038)scale(0.1 -0.1)">
       <use xlink:href="#DejaVuSans-30"/>
      </g>
     </g>
    </g>
    <g id="xtick_14">
     <g id="line2d_51">
      <path d="M 249.067636 446.6376 
L 249.067636 350.0334 
" clip-path="url(#p390d2d2de7)" style="fill: none; stroke-dasharray: 2.96,1.28; stroke-dashoffset: 0; stroke: #b0b0b0; stroke-width: 0.8"/>
     </g>
     <g id="line2d_52">
      <g>
       <use xlink:href="#m6abf54cd54" x="249.067636" y="446.6376" style="stroke: #000000; stroke-width: 0.8"/>
      </g>
     </g>
     <g id="text_44">
      <!-- 10 -->
      <g transform="translate(242.705136 461.236038)scale(0.1 -0.1)">
       <use xlink:href="#DejaVuSans-31"/>
       <use xlink:href="#DejaVuSans-30" x="63.623047"/>
      </g>
     </g>
    </g>
    <g id="xtick_15">
     <g id="line2d_53">
      <path d="M 367.671273 446.6376 
L 367.671273 350.0334 
" clip-path="url(#p390d2d2de7)" style="fill: none; stroke-dasharray: 2.96,1.28; stroke-dashoffset: 0; stroke: #b0b0b0; stroke-width: 0.8"/>
     </g>
     <g id="line2d_54">
      <g>
       <use xlink:href="#m6abf54cd54" x="367.671273" y="446.6376" style="stroke: #000000; stroke-width: 0.8"/>
      </g>
     </g>
     <g id="text_45">
      <!-- 20 -->
      <g transform="translate(361.308773 461.236038)scale(0.1 -0.1)">
       <use xlink:href="#DejaVuSans-32"/>
       <use xlink:href="#DejaVuSans-30" x="63.623047"/>
      </g>
     </g>
    </g>
    <g id="xtick_16">
     <g id="line2d_55">
      <path d="M 486.274909 446.6376 
L 486.274909 350.0334 
" clip-path="url(#p390d2d2de7)" style="fill: none; stroke-dasharray: 2.96,1.28; stroke-dashoffset: 0; stroke: #b0b0b0; stroke-width: 0.8"/>
     </g>
     <g id="line2d_56">
      <g>
       <use xlink:href="#m6abf54cd54" x="486.274909" y="446.6376" style="stroke: #000000; stroke-width: 0.8"/>
      </g>
     </g>
     <g id="text_46">
      <!-- 30 -->
      <g transform="translate(479.912409 461.236038)scale(0.1 -0.1)">
       <use xlink:href="#DejaVuSans-33"/>
       <use xlink:href="#DejaVuSans-30" x="63.623047"/>
      </g>
     </g>
    </g>
    <g id="xtick_17">
     <g id="line2d_57">
      <path d="M 604.878545 446.6376 
L 604.878545 350.0334 
" clip-path="url(#p390d2d2de7)" style="fill: none; stroke-dasharray: 2.96,1.28; stroke-dashoffset: 0; stroke: #b0b0b0; stroke-width: 0.8"/>
     </g>
     <g id="line2d_58">
      <g>
       <use xlink:href="#m6abf54cd54" x="604.878545" y="446.6376" style="stroke: #000000; stroke-width: 0.8"/>
      </g>
     </g>
     <g id="text_47">
      <!-- 40 -->
      <g transform="translate(598.516045 461.236038)scale(0.1 -0.1)">
       <use xlink:href="#DejaVuSans-34"/>
       <use xlink:href="#DejaVuSans-30" x="63.623047"/>
      </g>
     </g>
    </g>
    <g id="xtick_18">
     <g id="line2d_59">
      <path d="M 723.482182 446.6376 
L 723.482182 350.0334 
" clip-path="url(#p390d2d2de7)" style="fill: none; stroke-dasharray: 2.96,1.28; stroke-dashoffset: 0; stroke: #b0b0b0; stroke-width: 0.8"/>
     </g>
     <g id="line2d_60">
      <g>
       <use xlink:href="#m6abf54cd54" x="723.482182" y="446.6376" style="stroke: #000000; stroke-width: 0.8"/>
      </g>
     </g>
     <g id="text_48">
      <!-- 50 -->
      <g transform="translate(717.119682 461.236038)scale(0.1 -0.1)">
       <use xlink:href="#DejaVuSans-35"/>
       <use xlink:href="#DejaVuSans-30" x="63.623047"/>
      </g>
     </g>
    </g>
    <g id="text_49">
     <!-- 训练轮数 -->
     <g transform="translate(742.784 475.323537)scale(0.1 -0.1)">
      <use xlink:href="#SimHei-8bad"/>
      <use xlink:href="#SimHei-7ec3" x="100"/>
      <use xlink:href="#SimHei-8f6e" x="200"/>
      <use xlink:href="#SimHei-6570" x="300"/>
     </g>
    </g>
   </g>
   <g id="matplotlib.axis_6">
    <g id="ytick_9">
     <g id="line2d_61">
      <path d="M 130.464 446.6376 
L 782.784 446.6376 
" clip-path="url(#p390d2d2de7)" style="fill: none; stroke-dasharray: 2.96,1.28; stroke-dashoffset: 0; stroke: #b0b0b0; stroke-width: 0.8"/>
     </g>
     <g id="line2d_62">
      <g>
       <use xlink:href="#m1012c2a498" x="130.464" y="446.6376" style="stroke: #000000; stroke-width: 0.8"/>
      </g>
     </g>
     <g id="text_50">
      <!-- 0.50 -->
      <g transform="translate(101.198375 450.436819)scale(0.1 -0.1)">
       <use xlink:href="#DejaVuSans-30"/>
       <use xlink:href="#DejaVuSans-2e" x="63.623047"/>
       <use xlink:href="#DejaVuSans-35" x="95.410156"/>
       <use xlink:href="#DejaVuSans-30" x="159.033203"/>
      </g>
     </g>
    </g>
    <g id="ytick_10">
     <g id="line2d_63">
      <path d="M 130.464 414.4362 
L 782.784 414.4362 
" clip-path="url(#p390d2d2de7)" style="fill: none; stroke-dasharray: 2.96,1.28; stroke-dashoffset: 0; stroke: #b0b0b0; stroke-width: 0.8"/>
     </g>
     <g id="line2d_64">
      <g>
       <use xlink:href="#m1012c2a498" x="130.464" y="414.4362" style="stroke: #000000; stroke-width: 0.8"/>
      </g>
     </g>
     <g id="text_51">
      <!-- 0.55 -->
      <g transform="translate(101.198375 418.235419)scale(0.1 -0.1)">
       <use xlink:href="#DejaVuSans-30"/>
       <use xlink:href="#DejaVuSans-2e" x="63.623047"/>
       <use xlink:href="#DejaVuSans-35" x="95.410156"/>
       <use xlink:href="#DejaVuSans-35" x="159.033203"/>
      </g>
     </g>
    </g>
    <g id="ytick_11">
     <g id="line2d_65">
      <path d="M 130.464 382.2348 
L 782.784 382.2348 
" clip-path="url(#p390d2d2de7)" style="fill: none; stroke-dasharray: 2.96,1.28; stroke-dashoffset: 0; stroke: #b0b0b0; stroke-width: 0.8"/>
     </g>
     <g id="line2d_66">
      <g>
       <use xlink:href="#m1012c2a498" x="130.464" y="382.2348" style="stroke: #000000; stroke-width: 0.8"/>
      </g>
     </g>
     <g id="text_52">
      <!-- 0.60 -->
      <g transform="translate(101.198375 386.034019)scale(0.1 -0.1)">
       <use xlink:href="#DejaVuSans-30"/>
       <use xlink:href="#DejaVuSans-2e" x="63.623047"/>
       <use xlink:href="#DejaVuSans-36" x="95.410156"/>
       <use xlink:href="#DejaVuSans-30" x="159.033203"/>
      </g>
     </g>
    </g>
    <g id="ytick_12">
     <g id="line2d_67">
      <path d="M 130.464 350.0334 
L 782.784 350.0334 
" clip-path="url(#p390d2d2de7)" style="fill: none; stroke-dasharray: 2.96,1.28; stroke-dashoffset: 0; stroke: #b0b0b0; stroke-width: 0.8"/>
     </g>
     <g id="line2d_68">
      <g>
       <use xlink:href="#m1012c2a498" x="130.464" y="350.0334" style="stroke: #000000; stroke-width: 0.8"/>
      </g>
     </g>
     <g id="text_53">
      <!-- 0.65 -->
      <g transform="translate(101.198375 353.832619)scale(0.1 -0.1)">
       <use xlink:href="#DejaVuSans-30"/>
       <use xlink:href="#DejaVuSans-2e" x="63.623047"/>
       <use xlink:href="#DejaVuSans-36" x="95.410156"/>
       <use xlink:href="#DejaVuSans-35" x="159.033203"/>
      </g>
     </g>
    </g>
    <g id="text_54">
     <!-- 召回率 -->
     <g transform="translate(67.198375 348.7834)scale(0.1 -0.1)">
      <defs>
       <path id="SimHei-53ec" d="M 5350 2000 
Q 5325 1600 5325 1250 
L 5325 300 
Q 5325 -125 5350 -575 
L 4825 -575 
L 4825 -100 
L 1850 -100 
L 1850 -575 
L 1300 -550 
Q 1325 -300 1325 100 
L 1325 1250 
Q 1325 1625 1300 2000 
L 5350 2000 
z
M 325 2375 
Q 800 2475 1237 2687 
Q 1675 2900 2000 3250 
Q 2325 3600 2475 4400 
L 1750 4400 
Q 1250 4400 800 4375 
L 800 4850 
Q 1375 4825 1725 4825 
L 5475 4825 
Q 5425 4550 5400 4100 
L 5275 3175 
Q 5175 2600 4887 2500 
Q 4600 2400 4050 2350 
Q 4025 2550 3875 2925 
Q 4375 2875 4562 2962 
Q 4750 3050 4775 3275 
L 4900 4400 
L 3025 4400 
Q 2900 3775 2712 3412 
Q 2525 3050 2287 2800 
Q 2050 2550 1625 2337 
Q 1200 2125 650 1925 
Q 525 2175 325 2375 
z
M 4825 325 
L 4825 1550 
L 1850 1550 
L 1850 325 
L 4825 325 
z
" transform="scale(0.015625)"/>
       <path id="SimHei-56de" d="M 5650 4850 
Q 5625 4125 5625 3450 
L 5625 950 
Q 5625 300 5650 -375 
L 5150 -375 
L 5150 100 
L 1175 100 
L 1175 -375 
L 700 -375 
Q 725 250 725 950 
L 725 3450 
Q 725 4100 700 4850 
L 5650 4850 
z
M 5150 500 
L 5150 4425 
L 1200 4425 
L 1200 500 
L 5150 500 
z
M 4325 3500 
Q 4300 3125 4300 2750 
L 4300 2175 
Q 4300 1850 4325 1400 
L 2025 1400 
Q 2050 1850 2050 2175 
L 2050 2800 
Q 2050 3150 2025 3500 
L 4325 3500 
z
M 3825 1825 
L 3825 3100 
L 2500 3100 
L 2500 1825 
L 3825 1825 
z
" transform="scale(0.015625)"/>
       <path id="SimHei-7387" d="M 3325 5150 
Q 3425 4900 3550 4525 
L 4800 4525 
Q 5250 4525 5800 4550 
L 5800 4125 
Q 5250 4175 4775 4175 
L 2800 4175 
Q 2975 4050 3300 3900 
Q 3075 3750 2875 3537 
Q 2675 3325 2475 3125 
L 3275 3125 
Q 3575 3425 3775 3775 
Q 4000 3600 4275 3425 
Q 3950 3250 3600 2875 
Q 3250 2500 2625 2000 
L 3850 2100 
Q 3725 2250 3600 2425 
Q 3750 2475 4000 2650 
Q 4250 2350 4700 1700 
Q 4475 1625 4225 1450 
Q 4175 1600 4025 1775 
Q 3700 1750 3425 1750 
L 3425 1050 
L 5150 1050 
Q 5675 1050 6100 1075 
L 6100 650 
Q 5700 675 5125 675 
L 3425 675 
L 3425 175 
Q 3425 -300 3450 -625 
L 2900 -625 
Q 2925 -300 2925 175 
L 2925 675 
L 1325 675 
Q 825 675 325 650 
L 325 1075 
Q 825 1050 1350 1050 
L 2925 1050 
L 2925 1700 
Q 2700 1675 2475 1637 
Q 2250 1600 2025 1525 
Q 1950 1775 1850 2000 
Q 2075 2025 2325 2200 
Q 2575 2375 2975 2800 
Q 2300 2725 2025 2625 
Q 1975 2875 1850 3175 
Q 2075 3175 2325 3487 
Q 2575 3800 2750 4175 
L 1700 4175 
Q 1150 4175 650 4125 
L 650 4550 
Q 1150 4525 1550 4525 
L 2975 4525 
Q 2900 4825 2800 5025 
Q 3025 5075 3325 5150 
z
M 1625 2575 
Q 1725 2400 1825 2200 
Q 1575 2050 1325 1862 
Q 1075 1675 800 1425 
Q 625 1675 475 1875 
Q 800 2025 1100 2212 
Q 1400 2400 1625 2575 
z
M 4850 2650 
Q 5125 2475 5337 2337 
Q 5550 2200 5875 1950 
Q 5675 1800 5500 1600 
Q 5300 1775 5062 1975 
Q 4825 2175 4575 2325 
Q 4725 2475 4850 2650 
z
M 5725 3525 
Q 5550 3450 5300 3262 
Q 5050 3075 4800 2825 
Q 4625 3050 4475 3175 
Q 4700 3325 4875 3487 
Q 5050 3650 5300 3925 
Q 5525 3700 5725 3525 
z
M 1050 3850 
Q 1425 3600 1775 3275 
Q 1575 3100 1425 2925 
Q 1075 3300 675 3525 
Q 875 3700 1050 3850 
z
" transform="scale(0.015625)"/>
      </defs>
      <use xlink:href="#SimHei-53ec"/>
      <use xlink:href="#SimHei-56de" x="100"/>
      <use xlink:href="#SimHei-7387" x="200"/>
     </g>
    </g>
   </g>
   <g id="line2d_69">
    <path d="M 142.324364 410.856591 
L 201.626182 417.368479 
L 260.928 396.977992 
L 320.229818 391.612177 
L 355.810909 384.216908 
L 379.531636 382.972614 
L 415.112727 402.826528 
L 426.973091 395.395982 
L 438.833455 386.553701 
L 462.554182 379.361228 
L 474.414545 385.399942 
L 486.274909 391.730356 
L 498.135273 382.821899 
L 545.576727 403.489344 
L 616.738909 405.07806 
L 711.621818 434.870646 
" clip-path="url(#p390d2d2de7)" style="fill: none; stroke: #d80552; stroke-width: 1.5; stroke-linecap: square"/>
   </g>
   <g id="line2d_70">
    <path d="M 142.324364 404.774758 
L 177.905455 405.990534 
L 213.486545 406.595305 
L 249.067636 404.828937 
L 320.229818 389.181552 
L 355.810909 399.973019 
L 438.833455 386.875857 
L 450.693818 401.230847 
L 462.554182 390.714418 
L 474.414545 381.39406 
L 486.274909 387.504892 
L 498.135273 385.534207 
L 557.437091 394.858948 
L 616.738909 388.124223 
L 676.040727 398.736269 
L 711.621818 420.003227 
" clip-path="url(#p390d2d2de7)" style="fill: none; stroke: #4b65fe; stroke-width: 1.5; stroke-linecap: square"/>
   </g>
   <g id="patch_15">
    <path d="M 130.464 446.6376 
L 130.464 350.0334 
" style="fill: none; opacity: 0.3; stroke: #000000; stroke-width: 0.8; stroke-linejoin: miter; stroke-linecap: square"/>
   </g>
   <g id="patch_16">
    <path d="M 782.784 446.6376 
L 782.784 350.0334 
" style="fill: none; opacity: 0"/>
   </g>
   <g id="patch_17">
    <path d="M 130.464 446.6376 
L 782.784 446.6376 
" style="fill: none; opacity: 0.3; stroke: #000000; stroke-width: 0.8; stroke-linejoin: miter; stroke-linecap: square"/>
   </g>
   <g id="patch_18">
    <path d="M 130.464 350.0334 
L 782.784 350.0334 
" style="fill: none; opacity: 0"/>
   </g>
   <g id="text_55">
    <!-- 训练轮数与召回率曲线 -->
    <g transform="translate(386.624 344.0334)scale(0.14 -0.14)">
     <use xlink:href="#SimHei-8bad"/>
     <use xlink:href="#SimHei-7ec3" x="100"/>
     <use xlink:href="#SimHei-8f6e" x="200"/>
     <use xlink:href="#SimHei-6570" x="300"/>
     <use xlink:href="#SimHei-4e0e" x="400"/>
     <use xlink:href="#SimHei-53ec" x="500"/>
     <use xlink:href="#SimHei-56de" x="600"/>
     <use xlink:href="#SimHei-7387" x="700"/>
     <use xlink:href="#SimHei-66f2" x="800"/>
     <use xlink:href="#SimHei-7ebf" x="900"/>
    </g>
   </g>
   <g id="legend_3">
    <g id="patch_19">
     <path d="M 703.784 384.5334 
L 775.784 384.5334 
Q 777.784 384.5334 777.784 382.5334 
L 777.784 357.0334 
Q 777.784 355.0334 775.784 355.0334 
L 703.784 355.0334 
Q 701.784 355.0334 701.784 357.0334 
L 701.784 382.5334 
Q 701.784 384.5334 703.784 384.5334 
z
" style="fill: #ffffff; opacity: 0.8; stroke: #cccccc; stroke-linejoin: miter"/>
    </g>
    <g id="line2d_71">
     <path d="M 705.784 362.5334 
L 715.784 362.5334 
L 725.784 362.5334 
" style="fill: none; stroke: #d80552; stroke-width: 1.5; stroke-linecap: square"/>
    </g>
    <g id="text_56">
     <!-- EGDTrack -->
     <g transform="translate(733.784 366.0334)scale(0.1 -0.1)">
      <use xlink:href="#SimHei-45"/>
      <use xlink:href="#SimHei-47" x="50"/>
      <use xlink:href="#SimHei-44" x="100"/>
      <use xlink:href="#SimHei-54" x="150"/>
      <use xlink:href="#SimHei-72" x="200"/>
      <use xlink:href="#SimHei-61" x="250"/>
      <use xlink:href="#SimHei-63" x="300"/>
      <use xlink:href="#SimHei-6b" x="350"/>
     </g>
    </g>
    <g id="line2d_72">
     <path d="M 705.784 375.7834 
L 715.784 375.7834 
L 725.784 375.7834 
" style="fill: none; stroke: #4b65fe; stroke-width: 1.5; stroke-linecap: square"/>
    </g>
    <g id="text_57">
     <!-- BTSTrack -->
     <g transform="translate(733.784 379.2834)scale(0.1 -0.1)">
      <use xlink:href="#SimHei-42"/>
      <use xlink:href="#SimHei-54" x="50"/>
      <use xlink:href="#SimHei-53" x="100"/>
      <use xlink:href="#SimHei-54" x="150"/>
      <use xlink:href="#SimHei-72" x="200"/>
      <use xlink:href="#SimHei-61" x="250"/>
      <use xlink:href="#SimHei-63" x="300"/>
      <use xlink:href="#SimHei-6b" x="350"/>
     </g>
    </g>
   </g>
  </g>
 </g>
 <defs>
  <clipPath id="paf026e5de0">
   <rect x="130.464" y="60.2208" width="652.32" height="96.6042"/>
  </clipPath>
  <clipPath id="p08670fabc5">
   <rect x="130.464" y="205.1271" width="652.32" height="96.6042"/>
  </clipPath>
  <clipPath id="p390d2d2de7">
   <rect x="130.464" y="350.0334" width="652.32" height="96.6042"/>
  </clipPath>
 </defs>
</svg>
